<?xml version="1.0" encoding="UTF-8"?>
<!DOCTYPE svg PUBLIC "-//W3C//DTD SVG 1.1//EN" "http://www.w3.org/Graphics/SVG/1.1/DTD/svg11.dtd">
<svg xmlns="http://www.w3.org/2000/svg" version="1.1" width="575px" height="382px" style="shape-rendering:geometricPrecision; text-rendering:geometricPrecision; image-rendering:optimizeQuality; fill-rule:evenodd; clip-rule:evenodd" xmlns:xlink="http://www.w3.org/1999/xlink">
<g><path style="opacity:1" fill="#fefefe" d="M -0.5,-0.5 C 191.167,-0.5 382.833,-0.5 574.5,-0.5C 574.5,126.833 574.5,254.167 574.5,381.5C 382.833,381.5 191.167,381.5 -0.5,381.5C -0.5,254.167 -0.5,126.833 -0.5,-0.5 Z"/></g>
<g><path style="opacity:1" fill="#b5b5b5" d="M 379.5,5.5 C 384.82,3.07982 386.987,4.74648 386,10.5C 383.821,11.2611 381.655,10.9278 379.5,9.5C 380.167,8.5 380.833,7.5 381.5,6.5C 381.043,5.70245 380.376,5.36912 379.5,5.5 Z"/></g>
<g><path style="opacity:1" fill="#9e9e9e" d="M 259.5,4.5 C 265.229,5.92141 270.895,6.42141 276.5,6C 277.747,7.49362 277.747,8.99362 276.5,10.5C 275.749,9.62402 275.249,8.62402 275,7.5C 273.623,11.2649 272.623,10.9316 272,6.5C 271.781,7.93801 271.281,9.27135 270.5,10.5C 269.402,9.38453 268.235,9.38453 267,10.5C 265.118,9.90667 264.118,8.57333 264,6.5C 263,11.8333 262,11.8333 261,6.5C 260.781,7.93801 260.281,9.27135 259.5,10.5C 258.306,8.48436 258.306,6.48436 259.5,4.5 Z"/></g>
<g><path style="opacity:1" fill="#8d8d8d" d="M 204.5,5.5 C 204.56,4.95691 204.893,4.62358 205.5,4.5C 206.167,5.16667 206.833,5.83333 207.5,6.5C 208.258,5.18861 209.258,4.68861 210.5,5C 209.782,6.98744 208.782,8.82077 207.5,10.5C 206.675,8.64042 205.675,6.97376 204.5,5.5 Z"/></g>
<g><path style="opacity:1" fill="#ababab" d="M 226.5,4.5 C 229.5,4.5 232.5,4.5 235.5,4.5C 235.703,6.39037 235.037,7.89037 233.5,9C 233.833,9.33333 234.167,9.66667 234.5,10C 226.303,9.63789 218.303,9.80455 210.5,10.5C 210.5,9.16667 210.5,7.83333 210.5,6.5C 211.93,6.57918 213.264,6.24585 214.5,5.5C 214.296,6.52942 214.796,7.52942 216,8.5C 217,5.83333 218,5.83333 219,8.5C 219.582,5.33231 220.582,4.99898 222,7.5C 222.953,5.40783 224.286,5.0745 226,6.5C 226.464,5.90558 226.631,5.23891 226.5,4.5 Z"/></g>
<g><path style="opacity:1" fill="#949494" d="M 280.5,4.5 C 281.94,5.36288 283.274,5.36288 284.5,4.5C 285.192,5.02527 285.692,5.69194 286,6.5C 287.458,5.25316 288.958,5.25316 290.5,6.5C 291.833,5.83333 293.167,5.16667 294.5,4.5C 295.192,5.02527 295.692,5.69194 296,6.5C 299.669,4.99074 301.169,6.32407 300.5,10.5C 295.039,10.103 289.706,10.103 284.5,10.5C 282.793,6.86415 281.626,6.86415 281,10.5C 280.505,8.5273 280.338,6.5273 280.5,4.5 Z"/></g>
<g><path style="opacity:1" fill="#979797" d="M 329.5,4.5 C 331.124,4.36007 332.29,5.02674 333,6.5C 333.71,5.02674 334.876,4.36007 336.5,4.5C 336.275,8.05618 337.108,8.38952 339,5.5C 341.073,5.76067 343.073,5.76067 345,5.5C 344.333,7.16667 344.333,8.83333 345,10.5C 343.206,10.0093 341.206,10.0093 339,10.5C 337.019,10.3708 335.353,9.70418 334,8.5C 332.482,8.0574 331.315,8.72407 330.5,10.5C 329.534,8.60395 329.201,6.60395 329.5,4.5 Z"/></g>
<g><path style="opacity:1" fill="#9f9f9f" d="M 348.5,4.5 C 351.157,4.16202 353.49,4.82869 355.5,6.5C 358.958,6.44339 362.458,5.77673 366,4.5C 366.5,5 367,5.5 367.5,6C 367.056,7.53331 366.723,9.03331 366.5,10.5C 360.675,10.5874 354.675,10.5874 348.5,10.5C 348.5,8.5 348.5,6.5 348.5,4.5 Z"/></g>
<g><path style="opacity:1" fill="#979797" d="M 187.5,4.5 C 190.518,4.33537 193.518,4.50204 196.5,5C 195.833,5.33333 195.167,5.66667 194.5,6C 195.38,7.35613 195.714,8.85613 195.5,10.5C 192.833,10.5 190.167,10.5 187.5,10.5C 187.5,8.5 187.5,6.5 187.5,4.5 Z"/></g>
<g><path style="opacity:1" fill="#919191" d="M 197.5,4.5 C 201.893,4.45685 202.226,4.95685 198.5,6C 199.448,6.48278 200.448,6.64945 201.5,6.5C 201.5,7.83333 201.5,9.16667 201.5,10.5C 200.022,10.762 198.689,10.4287 197.5,9.5C 198.025,8.80762 198.692,8.30762 199.5,8C 198.027,7.29044 197.36,6.12377 197.5,4.5 Z"/></g>
<g><path style="opacity:1" fill="#979797" d="M 240.5,4.5 C 242.766,4.14118 244.599,4.80784 246,6.5C 248.793,6.45306 251.626,6.28639 254.5,6C 255.554,7.38762 255.72,8.88762 255,10.5C 254,6.5 253,6.5 252,10.5C 247.046,10.1437 241.879,10.1437 236.5,10.5C 236.5,8.83333 236.5,7.16667 236.5,5.5C 237.822,5.33003 238.989,5.66337 240,6.5C 240.464,5.90558 240.631,5.23891 240.5,4.5 Z"/></g>
<g><path style="opacity:1" fill="#777777" d="M 304.5,5.5 C 304.56,4.95691 304.893,4.62358 305.5,4.5C 306.318,6.10826 306.985,7.77492 307.5,9.5C 306.5,10.8333 305.5,10.8333 304.5,9.5C 305.705,8.00519 305.705,6.67186 304.5,5.5 Z"/></g>
<g><path style="opacity:1" fill="#a7a7a7" d="M 310.5,4.5 C 311.92,5.86643 313.42,7.19976 315,8.5C 315.5,8.33333 316,8.16667 316.5,8C 315.167,7.33333 315.167,6.66667 316.5,6C 314.068,4.91253 314.402,4.41253 317.5,4.5C 317.421,5.93047 317.754,7.26381 318.5,8.5C 315.34,10.9969 312.006,10.9969 308.5,8.5C 309.18,7.14011 309.847,5.80678 310.5,4.5 Z"/></g>
<g><path style="opacity:1" fill="#828282" d="M 319.5,5.5 C 320.601,4.40168 321.934,4.23502 323.5,5C 322.671,6.81608 321.837,8.64941 321,10.5C 320.28,8.88762 320.446,7.38762 321.5,6C 320.906,5.53566 320.239,5.36899 319.5,5.5 Z"/></g>
<g><path style="opacity:1" fill="#ff5956" d="M 518.5,21.5 C 522.97,20.5139 527.637,20.1805 532.5,20.5C 532.784,22.4147 532.451,24.0813 531.5,25.5C 531.5,24.1667 531.5,22.8333 531.5,21.5C 527.167,21.5 522.833,21.5 518.5,21.5 Z"/></g>
<g><path style="opacity:1" fill="#ff0000" d="M 518.5,21.5 C 522.833,21.5 527.167,21.5 531.5,21.5C 531.5,22.8333 531.5,24.1667 531.5,25.5C 527.167,25.5 522.833,25.5 518.5,25.5C 518.5,24.1667 518.5,22.8333 518.5,21.5 Z"/></g>
<g><path style="opacity:1" fill="#a1a1a1" d="M 537.5,20.5 C 539.492,20.3285 541.158,20.9951 542.5,22.5C 546.5,21.8333 550.5,21.1667 554.5,20.5C 556.942,21.384 557.775,23.0507 557,25.5C 556.667,24.8333 556.333,24.1667 556,23.5C 551.679,26.332 547.179,26.6654 542.5,24.5C 540.929,25.3094 539.262,25.6427 537.5,25.5C 537.5,23.8333 537.5,22.1667 537.5,20.5 Z"/></g>
<g><path style="opacity:1" fill="#9e9e9e" d="M 560.5,20.5 C 564.161,20.3501 565.161,21.8501 563.5,25C 559.707,25.4866 558.707,23.9866 560.5,20.5 Z"/></g>
<g><path style="opacity:1" fill="#7b7aff" d="M 518.5,31.5 C 522.97,30.5139 527.637,30.1805 532.5,30.5C 532.784,32.4147 532.451,34.0813 531.5,35.5C 531.5,34.1667 531.5,32.8333 531.5,31.5C 527.167,31.5 522.833,31.5 518.5,31.5 Z"/></g>
<g><path style="opacity:1" fill="#0505ff" d="M 518.5,31.5 C 522.833,31.5 527.167,31.5 531.5,31.5C 531.5,32.8333 531.5,34.1667 531.5,35.5C 527.167,35.5 522.833,35.5 518.5,35.5C 518.5,34.1667 518.5,32.8333 518.5,31.5 Z"/></g>
<g><path style="opacity:1" fill="#a4a4a4" d="M 537.5,30.5 C 542.955,32.6296 548.622,32.6296 554.5,30.5C 556.773,31.3751 557.773,33.0418 557.5,35.5C 555.408,35.4386 553.908,34.4386 553,32.5C 552.517,33.448 552.351,34.448 552.5,35.5C 550.516,35.3832 548.85,36.0499 547.5,37.5C 545.386,36.9661 543.552,35.9661 542,34.5C 540.89,36.0368 539.39,36.7035 537.5,36.5C 537.5,34.5 537.5,32.5 537.5,30.5 Z"/></g>
<g><path style="opacity:1" fill="#a5a5a5" d="M 537.5,40.5 C 539.492,40.3285 541.158,40.9951 542.5,42.5C 546.5,41.8333 550.5,41.1667 554.5,40.5C 556.496,41.7198 557.329,43.3865 557,45.5C 556.667,44.8333 556.333,44.1667 556,43.5C 554.609,46.2028 552.609,46.8694 550,45.5C 549.05,46.0223 548.216,46.689 547.5,47.5C 545.271,46.4229 542.937,45.7563 540.5,45.5C 540.719,44.325 540.386,43.325 539.5,42.5C 539.002,43.6034 538.669,44.6034 538.5,45.5C 537.548,43.9547 537.215,42.288 537.5,40.5 Z"/></g>
<g><path style="opacity:1" fill="#349732" d="M 153.5,47.5 C 149.502,50.6089 147.169,49.6089 146.5,44.5C 148.011,42.5589 150.011,42.0589 152.5,43C 153.38,44.3561 153.714,45.8561 153.5,47.5 Z"/></g>
<g><path style="opacity:1" fill="#3b8e31" d="M 518.5,41.5 C 523.167,41.5 527.833,41.5 532.5,41.5C 532.714,43.1439 532.38,44.6439 531.5,46C 527.179,46.499 522.846,46.6657 518.5,46.5C 518.5,44.8333 518.5,43.1667 518.5,41.5 Z"/></g>
<g><path style="opacity:1" fill="#319530" d="M 138.5,44.5 C 138.917,49.0685 136.917,50.5685 132.5,49C 131.748,48.3292 131.414,47.4959 131.5,46.5C 132.128,43.0451 134.128,41.8785 137.5,43C 138.056,43.3826 138.389,43.8826 138.5,44.5 Z"/></g>
<g><path style="opacity:1" fill="#3a9a38" d="M 164.5,53.5 C 160.5,54.1667 158.833,52.5 159.5,48.5C 160.659,46.6231 162.326,46.1231 164.5,47C 167.134,49.2933 167.134,51.46 164.5,53.5 Z"/></g>
<g><path style="opacity:1" fill="#379935" d="M 166.5,55.5 C 169.262,58.1482 168.929,60.4815 165.5,62.5C 161.736,61.615 160.736,59.4484 162.5,56C 163.793,55.51 165.127,55.3433 166.5,55.5 Z"/></g>
<g><path style="opacity:1" fill="#379835" d="M 124.5,47.5 C 124.617,49.4835 123.95,51.1502 122.5,52.5C 123.52,54.4325 123.687,56.4325 123,58.5C 121.989,59.3366 120.822,59.67 119.5,59.5C 115.827,57.7621 115.494,55.2621 118.5,52C 117.424,50.2739 117.257,48.4406 118,46.5C 120.552,44.9797 122.718,45.3131 124.5,47.5 Z"/></g>
<g><path style="opacity:1" fill="#449d41" d="M 85.5,69.5 C 84.4825,74.757 81.8158,75.757 77.5,72.5C 77.8222,68.0243 80.1556,66.5243 84.5,68C 85.056,68.3826 85.3893,68.8826 85.5,69.5 Z"/></g>
<g><path style="opacity:1" fill="#389835" d="M 67.5,70.5 C 67.2407,74.0681 65.2407,75.4015 61.5,74.5C 59.2372,69.7396 60.5705,67.573 65.5,68C 66.3805,68.7083 67.0472,69.5416 67.5,70.5 Z"/></g>
<g><path style="opacity:1" fill="#efefef" d="M 138.5,44.5 C 141.167,45.8333 143.833,45.8333 146.5,44.5C 147.169,49.6089 149.502,50.6089 153.5,47.5C 154.833,48.9335 156.333,50.2668 158,51.5C 158.232,50.2625 158.732,49.2625 159.5,48.5C 158.833,52.5 160.5,54.1667 164.5,53.5C 165.167,54.1667 165.833,54.8333 166.5,55.5C 165.127,55.3433 163.793,55.51 162.5,56C 160.736,59.4484 161.736,61.615 165.5,62.5C 164.613,70.6064 163.613,78.9397 162.5,87.5C 159.167,87.5 157.5,89.1667 157.5,92.5C 150.492,92.6663 143.492,92.4996 136.5,92C 136.833,91.6667 137.167,91.3333 137.5,91C 135.833,90.3333 134.167,90.3333 132.5,91C 133.167,91.6667 133.833,92.3333 134.5,93C 116.098,93.6949 97.7645,94.5283 79.5,95.5C 79.003,90.5072 76.8363,89.5072 73,92.5C 72.5172,93.448 72.3505,94.448 72.5,95.5C 71.7321,94.7375 71.2321,93.7375 71,92.5C 70.6667,93.1667 70.3333,93.8333 70,94.5C 68.195,91.9607 65.695,90.9607 62.5,91.5C 61.4379,87.6469 59.1045,86.6469 55.5,88.5C 55.5,87.5 55.5,86.5 55.5,85.5C 54.209,85.7373 53.209,85.404 52.5,84.5C 55.8333,84.5 57.5,82.8333 57.5,79.5C 58.8068,78.8466 60.1401,78.1799 61.5,77.5C 62.354,78.5217 63.354,79.3551 64.5,80C 60.7741,81.0432 61.1074,81.5432 65.5,81.5C 65.5,79.5 65.5,77.5 65.5,75.5C 63.901,75.7678 62.5676,75.4345 61.5,74.5C 65.2407,75.4015 67.2407,74.0681 67.5,70.5C 70.582,72.181 73.9153,72.8476 77.5,72.5C 81.8158,75.757 84.4825,74.757 85.5,69.5C 91.4768,72.2683 97.8101,74.2683 104.5,75.5C 103.769,68.626 106.436,63.626 112.5,60.5C 112.833,60.6667 113.167,60.8333 113.5,61C 107.501,64.163 105.167,68.9963 106.5,75.5C 112.382,77.8051 118.382,79.8051 124.5,81.5C 124.132,74.0156 122.465,66.6823 119.5,59.5C 120.822,59.67 121.989,59.3366 123,58.5C 123.687,56.4325 123.52,54.4325 122.5,52.5C 123.95,51.1502 124.617,49.4835 124.5,47.5C 126.764,46.7814 129.097,46.448 131.5,46.5C 131.414,47.4959 131.748,48.3292 132.5,49C 136.917,50.5685 138.917,49.0685 138.5,44.5 Z"/></g>
<g><path style="opacity:1" fill="#389836" d="M 132.5,56.5 C 137.214,56.2008 138.88,58.2008 137.5,62.5C 131.29,63.9673 129.623,61.9673 132.5,56.5 Z"/></g>
<g><path style="opacity:1" fill="#3b9839" d="M 147.5,55.5 C 153.555,54.9421 154.888,57.1088 151.5,62C 146.57,62.427 145.237,60.2604 147.5,55.5 Z"/></g>
<g><path style="opacity:1" fill="#379735" d="M 67.5,74.5 C 73.0159,74.4734 74.3492,76.64 71.5,81C 66.5705,81.427 65.2372,79.2604 67.5,74.5 Z"/></g>
<g><path style="opacity:1" fill="#369734" d="M 88.5,74.5 C 93.4857,74.3049 95.1524,76.4716 93.5,81C 87.741,82.1387 86.0744,79.972 88.5,74.5 Z"/></g>
<g><path style="opacity:1" fill="#3b9a39" d="M 57.5,79.5 C 57.5,82.8333 55.8333,84.5 52.5,84.5C 48.3503,81.6006 48.6837,79.2672 53.5,77.5C 55.0729,77.7517 56.4062,78.4183 57.5,79.5 Z"/></g>
<g><path style="opacity:1" fill="#369734" d="M 70.5,82.5 C 75.3276,82.3852 76.6609,84.5519 74.5,89C 68.3601,89.8076 67.0268,87.6409 70.5,82.5 Z"/></g>
<g><path style="opacity:1" fill="#3c993a" d="M 87.5,84.5 C 92.0057,83.5272 94.1724,85.1939 94,89.5C 90.5067,92.5018 88.0067,91.8351 86.5,87.5C 86.685,86.4163 87.0183,85.4163 87.5,84.5 Z"/></g>
<g><path style="opacity:1" fill="#349533" d="M 126.5,83.5 C 129.352,83.3524 131.019,84.6857 131.5,87.5C 129.167,92.8333 126.833,92.8333 124.5,87.5C 124.752,85.9271 125.418,84.5938 126.5,83.5 Z"/></g>
<g><path style="opacity:1" fill="#463dfa" d="M 162.5,87.5 C 164.594,89.5511 164.927,91.8845 163.5,94.5C 160.789,95.9886 158.789,95.3219 157.5,92.5C 157.5,89.1667 159.167,87.5 162.5,87.5 Z"/></g>
<g><path style="opacity:1" fill="#3c9b3a" d="M 62.5,91.5 C 59.5838,95.6057 56.9171,95.4391 54.5,91C 54.7432,90.0979 55.0766,89.2646 55.5,88.5C 59.1045,86.6469 61.4379,87.6469 62.5,91.5 Z"/></g>
<g><path style="opacity:1" fill="#3b9a39" d="M 79.5,95.5 C 77.1667,99.5 74.8333,99.5 72.5,95.5C 72.3505,94.448 72.5172,93.448 73,92.5C 76.8363,89.5072 79.003,90.5072 79.5,95.5 Z"/></g>
<g><path style="opacity:1" fill="#3936fd" d="M 287.5,119.5 C 292.895,118.555 294.561,120.555 292.5,125.5C 287.303,126.63 285.636,124.63 287.5,119.5 Z"/></g>
<g><path style="opacity:1" fill="#389936" d="M 263.5,151.5 C 259.157,154.839 256.823,153.839 256.5,148.5C 258.011,146.559 260.011,146.059 262.5,147C 263.38,148.356 263.714,149.856 263.5,151.5 Z"/></g>
<g><path style="opacity:1" fill="#3e9b3b" d="M 243.5,151.5 C 242.018,155.829 239.518,156.496 236,153.5C 235.517,152.552 235.351,151.552 235.5,150.5C 238.604,147.612 241.271,147.945 243.5,151.5 Z"/></g>
<g><path style="opacity:1" fill="#3a9a39" d="M 226.5,155.5 C 228.593,160.416 226.926,162.416 221.5,161.5C 219.077,155.739 220.744,153.739 226.5,155.5 Z"/></g>
<g><path style="opacity:1" fill="#369834" d="M 269.5,159.5 C 269.5,157.833 269.5,156.167 269.5,154.5C 272.774,152.734 275.107,153.568 276.5,157C 275.107,160.432 272.774,161.266 269.5,159.5 Z"/></g>
<g><path style="opacity:1" fill="#403bfc" d="M 493.5,160.5 C 489.822,163.581 487.155,162.914 485.5,158.5C 487.563,155.027 490.063,154.694 493,157.5C 493.483,158.448 493.649,159.448 493.5,160.5 Z"/></g>
<g><path style="opacity:1" fill="#3f38fd" d="M 508.5,162.5 C 504.5,163.167 502.833,161.5 503.5,157.5C 504.659,155.623 506.326,155.123 508.5,156C 511.114,158.243 511.114,160.41 508.5,162.5 Z"/></g>
<g><path style="opacity:1" fill="#3e9b3c" d="M 259.5,162.5 C 262.878,161.891 264.878,163.224 265.5,166.5C 265.035,169.473 263.368,170.64 260.5,170C 258.285,167.758 257.952,165.258 259.5,162.5 Z"/></g>
<g><path style="opacity:1" fill="#3e38fc" d="M 522.5,169.5 C 517.74,169.799 516.406,167.799 518.5,163.5C 523.493,161.319 525.327,162.986 524,168.5C 523.617,169.056 523.117,169.389 522.5,169.5 Z"/></g>
<g><path style="opacity:1" fill="#359834" d="M 220.5,163.5 C 224.548,164.262 225.548,166.596 223.5,170.5C 220.677,170.975 218.677,169.975 217.5,167.5C 217.754,165.583 218.754,164.249 220.5,163.5 Z"/></g>
<g><path style="opacity:1" fill="#4ca148" d="M 240.5,175.5 C 237.687,175.975 235.687,174.975 234.5,172.5C 235.497,167.751 237.997,166.751 242,169.5C 242.748,171.84 242.248,173.84 240.5,175.5 Z"/></g>
<g><path style="opacity:1" fill="#463ffd" d="M 521.5,175.5 C 525.688,178.305 525.355,180.638 520.5,182.5C 518.927,182.248 517.594,181.582 516.5,180.5C 515.833,176.5 517.5,174.833 521.5,175.5 Z"/></g>
<g><path style="opacity:1" fill="#ecebee" d="M 376.5,173.5 C 379.167,176.167 381.833,176.167 384.5,173.5C 388.434,172.677 391.434,171.343 393.5,169.5C 393.414,170.496 393.748,171.329 394.5,172C 398.917,173.568 400.917,172.068 400.5,167.5C 401.249,168.531 401.915,169.698 402.5,171C 404.641,171.573 406.641,172.406 408.5,173.5C 408.569,179.27 410.903,180.603 415.5,177.5C 415.47,178.497 415.97,179.164 417,179.5C 439.908,172.585 462.741,165.585 485.5,158.5C 487.155,162.914 489.822,163.581 493.5,160.5C 493.56,161.043 493.893,161.376 494.5,161.5C 494.489,160.559 494.989,159.892 496,159.5C 497.92,159.938 499.754,160.605 501.5,161.5C 500.91,162.799 499.91,163.632 498.5,164C 499.784,164.684 500.951,164.517 502,163.5C 502.191,161.292 502.691,159.292 503.5,157.5C 502.833,161.5 504.5,163.167 508.5,162.5C 506.502,163.148 504.502,163.981 502.5,165C 504.452,165.366 506.118,166.199 507.5,167.5C 504.505,170.851 505.005,173.518 509,175.5C 512.432,174.107 513.266,171.774 511.5,168.5C 512.455,166.29 513.955,165.957 516,167.5C 516.483,166.552 516.649,165.552 516.5,164.5C 511.979,164.674 511.645,164.007 515.5,162.5C 516.417,163.127 517.417,163.461 518.5,163.5C 516.406,167.799 517.74,169.799 522.5,169.5C 521.659,171.379 521.325,173.379 521.5,175.5C 517.5,174.833 515.833,176.5 516.5,180.5C 514.254,180.936 512.087,181.603 510,182.5C 509.667,181.833 509.333,181.167 509,180.5C 508.79,182.058 508.29,183.391 507.5,184.5C 507.47,179.549 505.137,178.216 500.5,180.5C 495.204,181.509 489.871,181.676 484.5,181C 486.708,180.809 488.708,180.309 490.5,179.5C 489.2,178.892 487.867,178.225 486.5,177.5C 474.202,179.246 461.868,180.746 449.5,182C 457.339,182.456 465.172,182.289 473,181.5C 475.833,181.667 478.667,181.833 481.5,182C 477.833,182.333 474.167,182.667 470.5,183C 478.167,183.333 485.833,183.667 493.5,184C 469.181,185.53 444.848,186.696 420.5,187.5C 423.994,182.289 422.661,180.122 416.5,181C 415.144,183.414 415.478,185.581 417.5,187.5C 416.833,187.5 416.5,187.833 416.5,188.5C 412.201,186.406 410.201,187.74 410.5,192.5C 409.897,190.81 408.897,189.31 407.5,188C 404.854,187.503 402.187,187.336 399.5,187.5C 399.778,189.346 399.111,190.68 397.5,191.5C 395.253,190.626 392.92,190.292 390.5,190.5C 391.127,187.136 389.794,185.136 386.5,184.5C 382.948,186.719 382.615,189.385 385.5,192.5C 380.933,193.549 377.266,196.049 374.5,200C 375.819,200.195 377.153,200.028 378.5,199.5C 378.385,204.328 380.552,205.661 385,203.5C 385.483,202.552 385.649,201.552 385.5,200.5C 387.336,202.588 389.669,203.921 392.5,204.5C 392.5,205.5 392.5,206.5 392.5,207.5C 384.854,204.409 377.521,204.909 370.5,209C 372.058,209.21 373.391,209.71 374.5,210.5C 371.167,210.5 369.5,212.167 369.5,215.5C 368.732,214.737 368.232,213.737 368,212.5C 367.282,213.451 366.449,213.617 365.5,213C 367.327,209.752 369.66,206.919 372.5,204.5C 372,204.167 371.5,203.833 371,203.5C 368.298,205.705 365.798,208.038 363.5,210.5C 358.289,207.006 356.122,208.339 357,214.5C 359.414,215.856 361.581,215.522 363.5,213.5C 363.586,214.496 363.252,215.329 362.5,216C 359.809,215.946 357.976,217.113 357,219.5C 356.667,219.167 356.333,218.833 356,218.5C 350.852,220.468 346.685,223.802 343.5,228.5C 342.575,229.641 341.741,229.641 341,228.5C 340.517,229.448 340.351,230.448 340.5,231.5C 343.939,231.788 347.272,232.454 350.5,233.5C 350.366,235.292 350.699,236.958 351.5,238.5C 350.202,237.884 349.202,237.884 348.5,238.5C 343.289,235.006 341.122,236.339 342,242.5C 343.356,243.38 344.856,243.714 346.5,243.5C 345.167,244.167 343.833,244.833 342.5,245.5C 340.186,244.103 339.02,242.437 339,240.5C 334.55,246.165 333.716,245.831 336.5,239.5C 336.333,238.833 336.167,238.167 336,237.5C 335.722,238.416 335.222,239.082 334.5,239.5C 334.003,234.507 331.836,233.507 328,236.5C 327.517,237.448 327.351,238.448 327.5,239.5C 326.596,238.791 326.263,237.791 326.5,236.5C 325.5,236.5 324.5,236.5 323.5,236.5C 323.634,234.708 323.301,233.042 322.5,231.5C 323.683,230.496 325.016,229.662 326.5,229C 323.639,228.46 320.972,227.46 318.5,226C 321.577,225.74 324.577,226.24 327.5,227.5C 328.167,227.167 328.833,226.833 329.5,226.5C 326.683,223.182 323.683,220.015 320.5,217C 324.283,218.748 327.616,221.414 330.5,225C 331.549,225.492 332.549,225.326 333.5,224.5C 334.298,224.957 334.631,225.624 334.5,226.5C 331.505,229.851 332.005,232.518 336,234.5C 340.439,232.083 340.606,229.416 336.5,226.5C 337.542,225.209 338.708,225.209 340,226.5C 346.25,222.66 351.417,217.827 355.5,212C 355.215,210.11 354.215,208.777 352.5,208C 354.218,207.654 355.885,207.154 357.5,206.5C 359.432,207.52 361.432,207.687 363.5,207C 362.263,206.768 361.263,206.268 360.5,205.5C 365.068,205.917 366.568,203.917 365,199.5C 360.552,197.339 358.385,198.672 358.5,203.5C 356.801,203.34 355.134,203.506 353.5,204C 354.696,204.654 354.696,205.154 353.5,205.5C 351.018,204.103 348.352,203.269 345.5,203C 338.015,202.029 330.515,201.196 323,200.5C 318.726,202.861 314.393,202.861 310,200.5C 308.739,200.759 307.739,201.426 307,202.5C 306.014,201.829 304.847,201.829 303.5,202.5C 304.942,201.18 305.608,199.514 305.5,197.5C 313.734,196.231 322.068,195.564 330.5,195.5C 331.128,198.955 333.128,200.122 336.5,199C 339.061,196.844 339.061,194.677 336.5,192.5C 337.496,192.414 338.329,192.748 339,193.5C 348.628,187.603 358.462,182.103 368.5,177C 353.326,166.914 338.326,156.58 323.5,146C 339.256,155.039 354.589,165.039 369.5,176C 371.256,176.14 372.922,175.64 374.5,174.5C 375.944,175.981 376.611,175.648 376.5,173.5 Z"/></g>
<g><path style="opacity:1" fill="#3935f9" d="M 420.5,187.5 C 419.5,187.5 418.5,187.5 417.5,187.5C 415.478,185.581 415.144,183.414 416.5,181C 422.661,180.122 423.994,182.289 420.5,187.5 Z"/></g>
<g><path style="opacity:1" fill="#4039fa" d="M 391.5,175.5 C 397.158,174.679 398.825,176.846 396.5,182C 391.183,182.73 389.517,180.563 391.5,175.5 Z"/></g>
<g><path style="opacity:1" fill="#4d44fb" d="M 490.5,179.5 C 488.253,172.907 490.086,171.241 496,174.5C 496.764,179.241 494.931,180.908 490.5,179.5 Z"/></g>
<g><path style="opacity:1" fill="#443cfb" d="M 415.5,177.5 C 410.903,180.603 408.569,179.27 408.5,173.5C 413.2,170.353 415.534,171.687 415.5,177.5 Z"/></g>
<g><path style="opacity:1" fill="#3d38fa" d="M 507.5,167.5 C 508.959,167.433 510.292,167.766 511.5,168.5C 513.266,171.774 512.432,174.107 509,175.5C 505.005,173.518 504.505,170.851 507.5,167.5 Z"/></g>
<g><path style="opacity:1" fill="#3f3afc" d="M 384.5,173.5 C 381.833,176.167 379.167,176.167 376.5,173.5C 377.339,168.332 379.839,167.332 384,170.5C 384.483,171.448 384.649,172.448 384.5,173.5 Z"/></g>
<g><path style="opacity:1" fill="#423bfb" d="M 400.5,167.5 C 400.917,172.068 398.917,173.568 394.5,172C 393.748,171.329 393.414,170.496 393.5,169.5C 394.128,166.045 396.128,164.878 399.5,166C 400.056,166.383 400.389,166.883 400.5,167.5 Z"/></g>
<g><path style="opacity:1" fill="#403afb" d="M 486.5,163.5 C 492.016,163.473 493.349,165.64 490.5,170C 484.738,170.418 483.404,168.251 486.5,163.5 Z"/></g>
<g><path style="opacity:1" fill="#3b36fc" d="M 507.5,184.5 C 502.984,187.703 500.651,186.37 500.5,180.5C 505.137,178.216 507.47,179.549 507.5,184.5 Z"/></g>
<g><path style="opacity:1" fill="#359733" d="M 225.5,187.5 C 225.608,189.514 224.942,191.18 223.5,192.5C 219.513,192.348 218.013,190.348 219,186.5C 221.552,184.98 223.718,185.313 225.5,187.5 Z"/></g>
<g><path style="opacity:1" fill="#d0342e" d="M 390.5,190.5 C 389.18,191.942 387.514,192.608 385.5,192.5C 382.615,189.385 382.948,186.719 386.5,184.5C 389.794,185.136 391.127,187.136 390.5,190.5 Z"/></g>
<g><path style="opacity:1" fill="#3d38fc" d="M 416.5,188.5 C 417.994,192.85 416.328,194.683 411.5,194C 410.944,193.617 410.611,193.117 410.5,192.5C 410.201,187.74 412.201,186.406 416.5,188.5 Z"/></g>
<g><path style="opacity:1" fill="#4b41f9" d="M 359.5,189.5 C 365.555,188.942 366.888,191.109 363.5,196C 357.738,196.418 356.404,194.251 359.5,189.5 Z"/></g>
<g><path style="opacity:1" fill="#564afa" d="M 336.5,192.5 C 339.061,194.677 339.061,196.844 336.5,199C 333.128,200.122 331.128,198.955 330.5,195.5C 331.336,191.809 333.336,190.809 336.5,192.5 Z"/></g>
<g><path style="opacity:1" fill="#3e37f8" d="M 300.5,194.5 C 302.933,194.273 304.599,195.273 305.5,197.5C 305.608,199.514 304.942,201.18 303.5,202.5C 298.243,201.482 297.243,198.816 300.5,194.5 Z"/></g>
<g><path style="opacity:1" fill="#3935f9" d="M 385.5,200.5 C 385.649,201.552 385.483,202.552 385,203.5C 380.552,205.661 378.385,204.328 378.5,199.5C 381.148,196.738 383.481,197.071 385.5,200.5 Z"/></g>
<g><path style="opacity:1" fill="#433bf9" d="M 360.5,205.5 C 359.5,205.167 358.833,204.5 358.5,203.5C 358.385,198.672 360.552,197.339 365,199.5C 366.568,203.917 365.068,205.917 360.5,205.5 Z"/></g>
<g><path style="opacity:1" fill="#4e43fe" d="M 506.5,205.5 C 511.068,205.083 512.568,207.083 511,211.5C 509.084,214.033 507.084,214.033 505,211.5C 504.252,209.16 504.752,207.16 506.5,205.5 Z"/></g>
<g><path style="opacity:1" fill="#3c38fc" d="M 392.5,207.5 C 392.5,206.5 392.5,205.5 392.5,204.5C 395.742,202.67 398.075,203.337 399.5,206.5C 397.733,211.316 395.399,211.65 392.5,207.5 Z"/></g>
<g><path style="opacity:1" fill="#3f39fb" d="M 374.5,210.5 C 377.495,213.851 376.995,216.518 373,218.5C 371.358,218.022 370.191,217.022 369.5,215.5C 369.5,212.167 371.167,210.5 374.5,210.5 Z"/></g>
<g><path style="opacity:1" fill="#449d40" d="M 243.5,208.5 C 245.081,210.142 245.747,212.142 245.5,214.5C 240.233,217.423 238.066,215.756 239,209.5C 240.356,208.62 241.856,208.286 243.5,208.5 Z"/></g>
<g><path style="opacity:1" fill="#3c36fa" d="M 363.5,210.5 C 363.5,211.5 363.5,212.5 363.5,213.5C 361.581,215.522 359.414,215.856 357,214.5C 356.122,208.339 358.289,207.006 363.5,210.5 Z"/></g>
<g><path style="opacity:1" fill="#3935fc" d="M 385.5,210.5 C 391.555,209.942 392.888,212.109 389.5,217C 384.791,217.082 383.458,214.915 385.5,210.5 Z"/></g>
<g><path style="opacity:1" fill="#3c9a3a" d="M 260.5,218.5 C 256.822,221.581 254.155,220.914 252.5,216.5C 254.563,213.027 257.063,212.694 260,215.5C 260.483,216.448 260.649,217.448 260.5,218.5 Z"/></g>
<g><path style="opacity:1" fill="#4c41fa" d="M 298.5,224.5 C 297.167,223.833 296.167,222.833 295.5,221.5C 295.78,217.775 297.78,216.608 301.5,218C 304.493,221.836 303.493,224.003 298.5,224.5 Z"/></g>
<g><path style="opacity:1" fill="#423cfd" d="M 492.5,216.5 C 497.663,216.107 499.33,218.273 497.5,223C 491.731,224.178 490.064,222.011 492.5,216.5 Z"/></g>
<g><path style="opacity:1" fill="#3d39fa" d="M 334.5,226.5 C 335.167,226.5 335.833,226.5 336.5,226.5C 340.606,229.416 340.439,232.083 336,234.5C 332.005,232.518 331.505,229.851 334.5,226.5 Z"/></g>
<g><path style="opacity:1" fill="#483ffb" d="M 322.5,231.5 C 323.301,233.042 323.634,234.708 323.5,236.5C 317.388,240.061 315.388,238.394 317.5,231.5C 319.199,230.185 320.865,230.185 322.5,231.5 Z"/></g>
<g><path style="opacity:1" fill="#453dfd" d="M 351.5,238.5 C 350.699,236.958 350.366,235.292 350.5,233.5C 351.659,231.623 353.326,231.123 355.5,232C 358.888,236.891 357.555,239.058 351.5,238.5 Z"/></g>
<g><path style="opacity:1" fill="#3f39fb" d="M 334.5,239.5 C 332.167,243.5 329.833,243.5 327.5,239.5C 327.351,238.448 327.517,237.448 328,236.5C 331.836,233.507 334.003,234.507 334.5,239.5 Z"/></g>
<g><path style="opacity:1" fill="#3d39fb" d="M 348.5,238.5 C 348.88,240.698 348.213,242.365 346.5,243.5C 344.856,243.714 343.356,243.38 342,242.5C 341.122,236.339 343.289,235.006 348.5,238.5 Z"/></g>
<g><path style="opacity:1" fill="#f4f4f4" d="M 256.5,148.5 C 256.823,153.839 259.157,154.839 263.5,151.5C 265.483,152.471 267.483,153.471 269.5,154.5C 269.5,156.167 269.5,157.833 269.5,159.5C 266.873,158.908 264.206,158.575 261.5,158.5C 261.649,159.552 261.483,160.552 261,161.5C 260.329,160.748 259.496,160.414 258.5,160.5C 258.833,161.167 259.167,161.833 259.5,162.5C 257.952,165.258 258.285,167.758 260.5,170C 263.368,170.64 265.035,169.473 265.5,166.5C 275.295,174.791 284.962,183.291 294.5,192C 296.811,192.236 298.811,193.069 300.5,194.5C 297.243,198.816 298.243,201.482 303.5,202.5C 304.847,201.829 306.014,201.829 307,202.5C 307.739,201.426 308.739,200.759 310,200.5C 314.393,202.861 318.726,202.861 323,200.5C 330.515,201.196 338.015,202.029 345.5,203C 348.352,203.269 351.018,204.103 353.5,205.5C 354.696,205.154 354.696,204.654 353.5,204C 355.134,203.506 356.801,203.34 358.5,203.5C 358.833,204.5 359.5,205.167 360.5,205.5C 361.263,206.268 362.263,206.768 363.5,207C 361.432,207.687 359.432,207.52 357.5,206.5C 355.885,207.154 354.218,207.654 352.5,208C 354.215,208.777 355.215,210.11 355.5,212C 351.417,217.827 346.25,222.66 340,226.5C 338.708,225.209 337.542,225.209 336.5,226.5C 335.833,226.5 335.167,226.5 334.5,226.5C 334.631,225.624 334.298,224.957 333.5,224.5C 332.549,225.326 331.549,225.492 330.5,225C 327.616,221.414 324.283,218.748 320.5,217C 323.683,220.015 326.683,223.182 329.5,226.5C 328.833,226.833 328.167,227.167 327.5,227.5C 324.577,226.24 321.577,225.74 318.5,226C 320.972,227.46 323.639,228.46 326.5,229C 325.016,229.662 323.683,230.496 322.5,231.5C 320.865,230.185 319.199,230.185 317.5,231.5C 315.388,238.394 317.388,240.061 323.5,236.5C 324.5,236.5 325.5,236.5 326.5,236.5C 326.263,237.791 326.596,238.791 327.5,239.5C 329.833,243.5 332.167,243.5 334.5,239.5C 335.222,239.082 335.722,238.416 336,237.5C 336.167,238.167 336.333,238.833 336.5,239.5C 333.716,245.831 334.55,246.165 339,240.5C 339.02,242.437 340.186,244.103 342.5,245.5C 342.938,245.435 343.272,245.601 343.5,246C 331.635,257.034 319.968,268.2 308.5,279.5C 307.292,278.766 305.959,278.433 304.5,278.5C 301.933,261.015 300.6,243.515 300.5,226C 299.584,225.722 298.918,225.222 298.5,224.5C 303.493,224.003 304.493,221.836 301.5,218C 297.78,216.608 295.78,217.775 295.5,221.5C 290.88,220.67 286.213,219.837 281.5,219C 284.167,218.667 286.833,218.333 289.5,218C 282.611,215.646 275.611,213.813 268.5,212.5C 270.272,209.183 269.439,206.85 266,205.5C 261.592,207.819 261.425,210.486 265.5,213.5C 265.611,214.117 265.944,214.617 266.5,215C 264.866,215.494 263.199,215.66 261.5,215.5C 261.737,216.791 261.404,217.791 260.5,218.5C 260.649,217.448 260.483,216.448 260,215.5C 257.063,212.694 254.563,213.027 252.5,216.5C 250.167,215.833 247.833,215.167 245.5,214.5C 245.747,212.142 245.081,210.142 243.5,208.5C 243.5,207.833 243.5,207.167 243.5,206.5C 248.907,208.257 250.907,206.424 249.5,201C 245.083,199.432 243.083,200.932 243.5,205.5C 238.748,203.276 234.415,200.276 230.5,196.5C 232.135,199.934 234.635,203.268 238,206.5C 238.688,207.332 238.521,207.998 237.5,208.5C 233.103,202.78 228.436,197.447 223.5,192.5C 224.942,191.18 225.608,189.514 225.5,187.5C 243.775,189.154 262.108,190.32 280.5,191C 267.257,185.543 253.923,180.376 240.5,175.5C 242.248,173.84 242.748,171.84 242,169.5C 237.997,166.751 235.497,167.751 234.5,172.5C 231.56,171.798 228.727,170.798 226,169.5C 225.329,170.252 224.496,170.586 223.5,170.5C 225.548,166.596 224.548,164.262 220.5,163.5C 220.833,162.833 221.167,162.167 221.5,161.5C 226.926,162.416 228.593,160.416 226.5,155.5C 230.599,155.493 233.599,153.827 235.5,150.5C 235.351,151.552 235.517,152.552 236,153.5C 239.518,156.496 242.018,155.829 243.5,151.5C 248.065,151.129 252.399,150.129 256.5,148.5 Z"/></g>
<g><path style="opacity:1" fill="#399837" d="M 268.5,212.5 C 267.609,213.11 266.609,213.443 265.5,213.5C 261.425,210.486 261.592,207.819 266,205.5C 269.439,206.85 270.272,209.183 268.5,212.5 Z"/></g>
<g><path style="opacity:1" fill="#3b9a39" d="M 243.5,206.5 C 243.5,206.167 243.5,205.833 243.5,205.5C 243.083,200.932 245.083,199.432 249.5,201C 250.907,206.424 248.907,208.257 243.5,206.5 Z"/></g>
<g><path style="opacity:1" fill="#3f9b3c" d="M 261.5,195.5 C 266.668,196.339 267.668,198.839 264.5,203C 259.917,203.934 258.417,202.1 260,197.5C 260.717,196.956 261.217,196.289 261.5,195.5 Z"/></g>
<g><path style="opacity:1" fill="#379735" d="M 237.5,158.5 C 242.328,158.385 243.661,160.552 241.5,165C 235.339,165.878 234.006,163.711 237.5,158.5 Z"/></g>
<g><path style="opacity:1" fill="#399838" d="M 258.5,160.5 C 253.028,162.926 250.861,161.259 252,155.5C 256.528,153.848 258.695,155.514 258.5,160.5 Z"/></g>
<g><path style="opacity:1" fill="#389936" d="M 212.5,262.5 C 218.158,261.679 219.825,263.846 217.5,269C 212.262,269.594 210.595,267.427 212.5,262.5 Z"/></g>
<g><path style="opacity:1" fill="#3a35f9" d="M 304.5,278.5 C 305.959,278.433 307.292,278.766 308.5,279.5C 308.5,279.833 308.5,280.167 308.5,280.5C 308.424,285.41 306.09,286.743 301.5,284.5C 301.025,281.687 302.025,279.687 304.5,278.5 Z"/></g>
<g><path style="opacity:1" fill="#47a044" d="M 196.5,289.5 C 202.488,289.664 203.821,292.164 200.5,297C 194.991,296.667 193.657,294.167 196.5,289.5 Z"/></g>
<g><path style="opacity:1" fill="#389936" d="M 218.5,287.5 C 223.214,287.201 224.88,289.201 223.5,293.5C 217.74,295.213 216.074,293.213 218.5,287.5 Z"/></g>
<g><path style="opacity:1" fill="#399a38" d="M 228.5,296.5 C 233.486,296.305 235.152,298.472 233.5,303C 227.741,304.139 226.074,301.972 228.5,296.5 Z"/></g>
<g><path style="opacity:1" fill="#399a37" d="M 205.5,299.5 C 210.894,298.554 212.561,300.554 210.5,305.5C 205.309,306.636 203.642,304.636 205.5,299.5 Z"/></g>
<g><path style="opacity:1" fill="#419d3e" d="M 378.5,319.5 C 376.504,321.333 374.171,321.833 371.5,321C 370.248,319.172 370.248,317.339 371.5,315.5C 375.751,313.479 378.084,314.813 378.5,319.5 Z"/></g>
<g><path style="opacity:1" fill="#3c9b3a" d="M 249.5,322.5 C 250.998,328.677 248.998,330.343 243.5,327.5C 242.944,322.465 244.944,320.798 249.5,322.5 Z"/></g>
<g><path style="opacity:1" fill="#3c9b3a" d="M 381.5,323.5 C 386.663,323.107 388.33,325.273 386.5,330C 384.402,330.678 382.402,330.511 380.5,329.5C 380.325,327.379 380.659,325.379 381.5,323.5 Z"/></g>
<g><path style="opacity:1" fill="#f4f5f4" d="M 308.5,280.5 C 309.434,281.568 309.768,282.901 309.5,284.5C 330.329,294.447 350.996,304.781 371.5,315.5C 370.248,317.339 370.248,319.172 371.5,321C 374.171,321.833 376.504,321.333 378.5,319.5C 378.738,321.404 379.738,322.738 381.5,323.5C 380.659,325.379 380.325,327.379 380.5,329.5C 377.976,330.927 375.31,332.094 372.5,333C 371.915,334.302 371.249,335.469 370.5,336.5C 370.615,331.672 368.448,330.339 364,332.5C 363.517,333.448 363.351,334.448 363.5,335.5C 359.462,334.905 355.462,334.238 351.5,333.5C 350.738,329.452 348.404,328.452 344.5,330.5C 342.101,327.675 340.268,324.675 339,321.5C 341.19,323.388 343.023,325.555 344.5,328C 346.134,328.494 347.801,328.66 349.5,328.5C 349.371,326.784 349.038,325.117 348.5,323.5C 354.342,327.044 356.342,325.544 354.5,319C 352.402,318.322 350.402,318.489 348.5,319.5C 337.79,310.389 326.956,301.389 316,292.5C 315.667,293.167 315.333,293.833 315,294.5C 312.46,292.295 310.293,289.795 308.5,287C 304.418,285.707 301.251,286.874 299,290.5C 290.259,301.729 281.759,313.062 273.5,324.5C 266.646,322.349 264.98,324.349 268.5,330.5C 267.504,330.414 266.671,330.748 266,331.5C 262.625,327.012 258.125,325.512 252.5,327C 255.044,328.092 257.711,328.759 260.5,329C 257.5,330 254.5,331 251.5,332C 253.581,335.927 256.581,336.594 260.5,334C 261.397,331.873 262.731,331.373 264.5,332.5C 261.728,334.085 261.894,335.085 265,335.5C 266.711,335.561 268.044,334.894 269,333.5C 270.011,334.337 271.178,334.67 272.5,334.5C 271.766,335.708 271.433,337.041 271.5,338.5C 270.033,335.742 269.367,336.075 269.5,339.5C 266.813,339.664 264.146,339.497 261.5,339C 263.966,338.07 263.799,337.237 261,336.5C 259.97,336.836 259.47,337.503 259.5,338.5C 256.396,335.612 253.729,335.945 251.5,339.5C 247.721,338.442 244.054,337.109 240.5,335.5C 240.634,333.708 240.301,332.042 239.5,330.5C 240.872,329.488 242.205,328.488 243.5,327.5C 248.998,330.343 250.998,328.677 249.5,322.5C 266.906,309.81 284.239,297.144 301.5,284.5C 306.09,286.743 308.424,285.41 308.5,280.5 Z"/></g>
<g><path style="opacity:1" fill="#389937" d="M 273.5,324.5 C 273.981,328.349 272.314,330.349 268.5,330.5C 264.98,324.349 266.646,322.349 273.5,324.5 Z"/></g>
<g><path style="opacity:1" fill="#399a37" d="M 348.5,323.5 C 348.5,322.167 348.5,320.833 348.5,319.5C 350.402,318.489 352.402,318.322 354.5,319C 356.342,325.544 354.342,327.044 348.5,323.5 Z"/></g>
<g><path style="opacity:1" fill="#3b9b39" d="M 309.5,329.5 C 314.486,329.305 316.152,331.472 314.5,336C 308.741,337.139 307.074,334.972 309.5,329.5 Z"/></g>
<g><path style="opacity:1" fill="#439e40" d="M 351.5,333.5 C 348.584,337.606 345.917,337.439 343.5,333C 343.743,332.098 344.077,331.265 344.5,330.5C 348.404,328.452 350.738,329.452 351.5,333.5 Z"/></g>
<g><path style="opacity:1" fill="#379835" d="M 239.5,330.5 C 240.301,332.042 240.634,333.708 240.5,335.5C 235.072,338.618 233.072,337.118 234.5,331C 236.134,330.506 237.801,330.34 239.5,330.5 Z"/></g>
<g><path style="opacity:1" fill="#3e9c3b" d="M 370.5,336.5 C 367.852,339.262 365.519,338.929 363.5,335.5C 363.351,334.448 363.517,333.448 364,332.5C 368.448,330.339 370.615,331.672 370.5,336.5 Z"/></g>
<g><path style="opacity:1" fill="#399a37" d="M 271.5,338.5 C 271.433,337.041 271.766,335.708 272.5,334.5C 277.094,332.771 278.927,334.438 278,339.5C 275.448,341.02 273.282,340.687 271.5,338.5 Z"/></g>
<g><path style="opacity:1" fill="#3b9b3a" d="M 259.5,338.5 C 259.348,342.487 257.348,343.987 253.5,343C 252.177,342.184 251.511,341.017 251.5,339.5C 253.729,335.945 256.396,335.612 259.5,338.5 Z"/></g>
<g><path style="opacity:1" fill="#3e9c3c" d="M 311.5,341.5 C 317.016,341.473 318.349,343.64 315.5,348C 309.738,348.418 308.404,346.251 311.5,341.5 Z"/></g>
</svg>
