<?xml version="1.0" encoding="UTF-8"?>
<!DOCTYPE svg PUBLIC "-//W3C//DTD SVG 1.1//EN" "http://www.w3.org/Graphics/SVG/1.1/DTD/svg11.dtd">
<svg xmlns="http://www.w3.org/2000/svg" version="1.1" width="898px" height="598px" style="shape-rendering:geometricPrecision; text-rendering:geometricPrecision; image-rendering:optimizeQuality; fill-rule:evenodd; clip-rule:evenodd" xmlns:xlink="http://www.w3.org/1999/xlink">
<g><path style="opacity:1" fill="#fefefe" d="M -0.5,-0.5 C 298.833,-0.5 598.167,-0.5 897.5,-0.5C 897.5,198.833 897.5,398.167 897.5,597.5C 598.167,597.5 298.833,597.5 -0.5,597.5C -0.5,398.167 -0.5,198.833 -0.5,-0.5 Z"/></g>
<g><path style="opacity:1" fill="#080808" d="M 329.5,48.5 C 327.809,49.8637 326.142,51.197 324.5,52.5C 313.998,61.4988 303.332,70.3321 292.5,79C 293.163,80.5185 294.163,81.6851 295.5,82.5C 296.475,84.7952 297.808,86.7952 299.5,88.5C 311.5,112.327 309.834,135.16 294.5,157C 327.667,202.833 360.833,248.667 394,294.5C 414.162,273.801 437.662,268.967 464.5,280C 472.758,283.635 479.758,288.968 485.5,296C 486.167,296.667 486.833,296.667 487.5,296C 525.333,255.5 563.167,215 601,174.5C 586.545,145.228 590.712,118.895 613.5,95.5C 615.363,95.1541 616.196,94.1541 616,92.5C 608.575,81.2601 601.408,69.9268 594.5,58.5C 593.513,56.5266 592.513,54.5266 591.5,52.5C 594.28,49.9362 597.28,47.6029 600.5,45.5C 609.724,58.5747 618.391,72.0747 626.5,86C 633.39,84.1952 640.39,82.5285 647.5,81C 667.771,79.422 684.937,85.922 699,100.5C 714.558,87.3072 730.392,74.4739 746.5,62C 749.745,63.1964 752.579,65.3631 755,68.5C 755.483,69.448 755.649,70.448 755.5,71.5C 753.246,72.1237 751.579,73.457 750.5,75.5C 735.363,86.396 721.03,98.2294 707.5,111C 707.808,112.459 708.475,113.626 709.5,114.5C 709.935,117.157 710.935,119.491 712.5,121.5C 718.618,142.361 715.451,161.694 703,179.5C 682.933,201.225 658.766,207.725 630.5,199C 623.743,195.397 617.409,191.23 611.5,186.5C 608.873,182.602 606.54,182.936 604.5,187.5C 567.566,226.938 530.399,266.271 493,305.5C 492.652,307.14 493.152,308.473 494.5,309.5C 494.796,311.403 495.463,313.07 496.5,314.5C 501.206,330.37 500.206,345.87 493.5,361C 559.894,393.365 626.56,425.365 693.5,457C 694.635,457.749 695.635,457.583 696.5,456.5C 714.093,429.023 738.427,420.523 769.5,431C 780.765,435.764 789.765,443.264 796.5,453.5C 807.833,444.5 819.167,435.5 830.5,426.5C 833.55,428.549 835.883,431.216 837.5,434.5C 836.145,436.521 834.479,438.188 832.5,439.5C 821.973,447.931 811.639,456.598 801.5,465.5C 801.942,466.739 802.609,467.739 803.5,468.5C 804.545,473.606 805.212,478.773 805.5,484C 804.828,491.342 803.662,498.509 802,505.5C 815.362,510.265 828.862,514.598 842.5,518.5C 842.5,519.5 842.5,520.5 842.5,521.5C 840.98,523.89 839.98,526.557 839.5,529.5C 838.5,529.5 837.5,529.5 836.5,529.5C 823.598,524.864 810.598,520.197 797.5,515.5C 795.663,517.176 794.33,519.176 793.5,521.5C 792.167,522.167 791.167,523.167 790.5,524.5C 764.135,549.402 736.469,550.902 707.5,529C 693.74,514.635 687.407,497.468 688.5,477.5C 689.461,475.735 689.795,473.735 689.5,471.5C 690.782,470.292 690.782,468.958 689.5,467.5C 622.167,435.5 554.833,403.5 487.5,371.5C 485.479,372.855 483.812,374.521 482.5,376.5C 462.605,394.651 439.938,399.151 414.5,390C 405.506,385.831 397.84,379.997 391.5,372.5C 327.325,417.087 263.325,461.92 199.5,507C 194.332,545.502 172.332,564.835 133.5,565C 121.073,563.285 110.406,558.119 101.5,549.5C 101.167,548.5 100.5,547.833 99.5,547.5C 98.5944,545.086 96.9278,544.253 94.5,545C 83.5754,553.948 72.9087,563.115 62.5,572.5C 59.5468,571.213 57.2135,569.213 55.5,566.5C 55.0472,565.542 54.3805,564.708 53.5,564C 65.2402,553.715 77.0735,543.548 89,533.5C 86.5032,527.154 84.6698,520.487 83.5,513.5C 83.5,507.167 83.5,500.833 83.5,494.5C 84.404,493.791 84.7373,492.791 84.5,491.5C 67.1667,491.5 49.8333,491.5 32.5,491.5C 32.5,487.833 32.5,484.167 32.5,480.5C 51.674,480.83 70.674,480.497 89.5,479.5C 99.1977,462.139 113.864,451.805 133.5,448.5C 138.167,448.5 142.833,448.5 147.5,448.5C 172.091,362.228 197.591,276.228 224,190.5C 225.063,185.81 226.23,181.144 227.5,176.5C 227.253,175.287 226.586,174.62 225.5,174.5C 206.961,165.431 195.628,150.764 191.5,130.5C 191.326,128.139 190.993,125.806 190.5,123.5C 190.5,122.167 190.5,120.833 190.5,119.5C 170.833,119.5 151.167,119.5 131.5,119.5C 129.833,119.5 128.167,119.5 126.5,119.5C 126.5,115.167 126.5,110.833 126.5,106.5C 148.169,106.667 169.836,106.5 191.5,106C 194.275,95.2813 199.275,85.7813 206.5,77.5C 208.479,76.1879 210.145,74.5212 211.5,72.5C 203.833,60.1873 195.833,48.1873 187.5,36.5C 186.589,34.0488 185.756,31.7154 185,29.5C 187.593,27.4514 190.093,25.2848 192.5,23C 193.167,22.3333 193.833,22.3333 194.5,23C 204.027,37.1851 213.527,51.3518 223,65.5C 243.705,56.3782 263.538,58.0449 282.5,70.5C 295.878,59.1205 309.544,48.1205 323.5,37.5C 326.223,39.9342 328.723,42.6009 331,45.5C 331.239,46.788 330.739,47.788 329.5,48.5 Z"/></g>
<g><path style="opacity:1" fill="#d0d0d0" d="M 187.5,36.5 C 195.833,48.1873 203.833,60.1873 211.5,72.5C 210.145,74.5212 208.479,76.1879 206.5,77.5C 201.344,70.1865 197.511,62.1865 195,53.5C 191.978,51.3119 189.478,48.6452 187.5,45.5C 186.259,42.463 186.259,39.463 187.5,36.5 Z"/></g>
<g><path style="opacity:1" fill="#fbfbfb" d="M 241.5,68.5 C 269.62,67.4665 288.454,80.1332 298,106.5C 303.375,137.263 291.541,158.096 262.5,169C 240.269,173.591 222.102,167.091 208,149.5C 191.554,119.726 197.054,94.893 224.5,75C 230.16,72.5073 235.826,70.3407 241.5,68.5 Z"/></g>
<g><path style="opacity:1" fill="#bbbbbb" d="M 324.5,52.5 C 324.649,53.552 324.483,54.552 324,55.5C 316.061,63.4478 307.561,70.6144 298.5,77C 297.029,78.5833 296.029,80.4166 295.5,82.5C 294.163,81.6851 293.163,80.5185 292.5,79C 303.332,70.3321 313.998,61.4988 324.5,52.5 Z"/></g>
<g><path style="opacity:1" fill="#cececd" d="M 594.5,58.5 C 601.408,69.9268 608.575,81.2601 616,92.5C 616.196,94.1541 615.363,95.1541 613.5,95.5C 613.19,94.2617 612.69,94.2617 612,95.5C 606.734,86.2368 601.067,77.2368 595,68.5C 593.265,65.2103 593.099,61.877 594.5,58.5 Z"/></g>
<g><path style="opacity:1" fill="#d3d4d3" d="M 329.5,48.5 C 329.665,51.5184 329.498,54.5184 329,57.5C 319.622,65.7175 310.122,73.7175 300.5,81.5C 299.526,83.7427 299.192,86.076 299.5,88.5C 297.808,86.7952 296.475,84.7952 295.5,82.5C 296.029,80.4166 297.029,78.5833 298.5,77C 307.561,70.6144 316.061,63.4478 324,55.5C 324.483,54.552 324.649,53.552 324.5,52.5C 326.142,51.197 327.809,49.8637 329.5,48.5 Z"/></g>
<g><path style="opacity:1" fill="#fbfbfb" d="M 648.5,88.5 C 675.485,88.4077 694.318,100.741 705,125.5C 712.044,159.585 699.21,182.418 666.5,194C 632.101,198.386 610.268,183.886 601,150.5C 599.747,116.648 615.581,95.9816 648.5,88.5 Z"/></g>
<g><path style="opacity:1" fill="#c3c3c3" d="M 750.5,75.5 C 750.788,78.7762 749.455,81.6095 746.5,84C 735.622,92.4653 725.288,101.465 715.5,111C 713.121,111.716 711.121,112.883 709.5,114.5C 708.475,113.626 707.808,112.459 707.5,111C 721.03,98.2294 735.363,86.396 750.5,75.5 Z"/></g>
<g><path style="opacity:1" fill="#e5e6e6" d="M 755.5,71.5 C 755.898,75.1061 755.398,78.7727 754,82.5C 752,85.1667 750,87.8333 748,90.5C 736.925,99.62 725.758,108.62 714.5,117.5C 713.37,118.622 712.703,119.956 712.5,121.5C 710.935,119.491 709.935,117.157 709.5,114.5C 711.121,112.883 713.121,111.716 715.5,111C 725.288,101.465 735.622,92.4653 746.5,84C 749.455,81.6095 750.788,78.7762 750.5,75.5C 751.579,73.457 753.246,72.1237 755.5,71.5 Z"/></g>
<g><path style="opacity:1" fill="#0d0d0d" d="M 223.5,103.5 C 226.355,102.197 229.355,102.197 232.5,103.5C 235,107.167 237.5,110.833 240,114.5C 242.955,110.756 245.789,106.922 248.5,103C 251.167,102.333 253.833,102.333 256.5,103C 252.096,108.4 248.096,114.067 244.5,120C 248.333,126.664 252.667,132.997 257.5,139C 254.446,139.821 251.446,139.655 248.5,138.5C 245.747,133.992 242.747,129.659 239.5,125.5C 236.624,130.086 233.624,134.586 230.5,139C 227.833,139.667 225.167,139.667 222.5,139C 227.202,133.096 231.536,126.929 235.5,120.5C 231.724,114.591 227.724,108.925 223.5,103.5 Z"/></g>
<g><path style="opacity:1" fill="#bdbebe" d="M 131.5,119.5 C 151.167,119.5 170.833,119.5 190.5,119.5C 190.5,120.833 190.5,122.167 190.5,123.5C 171.164,123.667 151.83,123.5 132.5,123C 130.627,122.047 130.294,120.88 131.5,119.5 Z"/></g>
<g><path style="opacity:1" fill="#191919" d="M 270.5,122.5 C 271.5,122.5 272.5,122.5 273.5,122.5C 273.5,133.5 273.5,144.5 273.5,155.5C 272.167,155.5 270.833,155.5 269.5,155.5C 269.666,147.16 269.5,138.827 269,130.5C 266.667,131.833 264.333,133.167 262,134.5C 261.833,134 261.667,133.5 261.5,133C 265.035,129.964 268.035,126.464 270.5,122.5 Z"/></g>
<g><path style="opacity:1" fill="#0e0e0e" d="M 631.5,160.5 C 629.265,160.795 627.265,160.461 625.5,159.5C 629.537,153.931 633.204,148.098 636.5,142C 633.246,135.746 629.579,129.746 625.5,124C 628.227,123.182 630.894,123.348 633.5,124.5C 635.445,128.736 638.112,132.403 641.5,135.5C 644.083,132.003 646.416,128.336 648.5,124.5C 651.106,123.348 653.773,123.182 656.5,124C 652.329,129.343 648.662,135.009 645.5,141C 649.286,147.622 653.286,154.122 657.5,160.5C 655.235,161.647 652.902,161.814 650.5,161C 647.706,155.91 644.54,151.077 641,146.5C 638.058,151.406 634.891,156.072 631.5,160.5 Z"/></g>
<g><path style="opacity:1" fill="#d7d8d7" d="M 126.5,106.5 C 126.5,110.833 126.5,115.167 126.5,119.5C 128.167,119.5 129.833,119.5 131.5,119.5C 130.294,120.88 130.627,122.047 132.5,123C 151.83,123.5 171.164,123.667 190.5,123.5C 190.993,125.806 191.326,128.139 191.5,130.5C 170.666,128.975 149.666,127.808 128.5,127C 127.151,126.228 126.318,125.061 126,123.5C 125.182,117.651 125.348,111.985 126.5,106.5 Z"/></g>
<g><path style="opacity:1" fill="#121212" d="M 668.5,176.5 C 673.975,177.489 679.642,177.822 685.5,177.5C 685.5,178.5 685.5,179.5 685.5,180.5C 678.167,180.5 670.833,180.5 663.5,180.5C 663.5,179.5 663.5,178.5 663.5,177.5C 664.072,175.745 664.906,174.078 666,172.5C 670.634,168.868 674.967,164.868 679,160.5C 682.788,151.547 679.955,147.714 670.5,149C 669.128,150.242 668.128,151.742 667.5,153.5C 666.311,154.429 664.978,154.762 663.5,154.5C 663.345,149.977 665.345,146.811 669.5,145C 682.109,143.268 686.942,148.435 684,160.5C 679.987,165.512 675.321,169.845 670,173.5C 669.487,174.527 668.987,175.527 668.5,176.5 Z"/></g>
<g><path style="opacity:1" fill="#141414" d="M 428.5,159.5 C 430.167,159.5 431.833,159.5 433.5,159.5C 433.5,174.833 433.5,190.167 433.5,205.5C 431.5,205.5 429.5,205.5 427.5,205.5C 427.832,193.814 427.499,182.148 426.5,170.5C 423.167,172.5 419.833,174.5 416.5,176.5C 415.24,174.647 415.24,172.814 416.5,171C 422.121,168.719 426.121,164.886 428.5,159.5 Z"/></g>
<g><path style="opacity:1" fill="#696868" d="M 625.5,159.5 C 627.265,160.461 629.265,160.795 631.5,160.5C 629.307,161.797 626.973,161.797 624.5,160.5C 624.624,159.893 624.957,159.56 625.5,159.5 Z"/></g>
<g><path style="opacity:1" fill="#fefefe" d="M 281.5,169.5 C 281.938,169.435 282.272,169.601 282.5,170C 281.643,170.689 280.977,171.522 280.5,172.5C 283.802,178.299 287.302,183.966 291,189.5C 321.439,231.085 351.606,272.751 381.5,314.5C 376.51,331.019 377.843,347.019 385.5,362.5C 323.421,406.623 261.254,450.623 199,494.5C 193.44,475.456 181.94,461.456 164.5,452.5C 167.287,445.642 169.787,438.642 172,431.5C 196.029,352.411 219.862,273.244 243.5,194C 243.167,193.667 242.833,193.333 242.5,193C 243.5,190 244.5,187 245.5,184C 244.778,182.249 243.778,180.749 242.5,179.5C 246.702,179.817 250.702,179.483 254.5,178.5C 264.093,177.302 273.093,174.302 281.5,169.5 Z"/></g>
<g><path style="opacity:1" fill="#121212" d="M 343.5,171.5 C 347.936,171.21 352.27,171.71 356.5,173C 357.787,174.41 358.954,175.91 360,177.5C 360.749,173.397 363.249,171.73 367.5,172.5C 365.781,177.878 364.447,183.378 363.5,189C 365.281,194.394 366.615,199.894 367.5,205.5C 365.5,205.5 363.5,205.5 361.5,205.5C 361.769,203.571 361.269,201.905 360,200.5C 352.7,208.423 345.366,208.423 338,200.5C 334.708,192.474 334.708,184.474 338,176.5C 339.73,174.598 341.563,172.931 343.5,171.5 Z"/></g>
<g><path style="opacity:1" fill="#050505" d="M 374.5,173.5 C 384.833,173.5 395.167,173.5 405.5,173.5C 405.5,175.167 405.5,176.833 405.5,178.5C 395.167,178.5 384.833,178.5 374.5,178.5C 374.5,176.833 374.5,175.167 374.5,173.5 Z"/></g>
<g><path style="opacity:1" fill="#f9f9f9" d="M 346.5,175.5 C 351.814,174.74 355.647,176.74 358,181.5C 358.667,186.167 358.667,190.833 358,195.5C 355.549,201.089 351.383,202.922 345.5,201C 343.683,199.2 342.516,197.034 342,194.5C 341.333,190.167 341.333,185.833 342,181.5C 343.332,179.34 344.832,177.34 346.5,175.5 Z"/></g>
<g><path style="opacity:1" fill="#d6d7d6" d="M 254.5,178.5 C 250.702,179.483 246.702,179.817 242.5,179.5C 239.861,190.739 236.527,201.906 232.5,213C 229.918,229.281 225.085,244.781 218,259.5C 217.23,260.598 216.397,260.598 215.5,259.5C 223.329,232.853 231.163,206.186 239,179.5C 244.072,178.529 249.238,178.195 254.5,178.5 Z"/></g>
<g><path style="opacity:1" fill="#707070" d="M 668.5,176.5 C 674.5,176.5 680.5,176.5 686.5,176.5C 686.5,178.167 686.5,179.833 686.5,181.5C 678.5,181.5 670.5,181.5 662.5,181.5C 662.232,179.901 662.566,178.568 663.5,177.5C 663.5,178.5 663.5,179.5 663.5,180.5C 670.833,180.5 678.167,180.5 685.5,180.5C 685.5,179.5 685.5,178.5 685.5,177.5C 679.642,177.822 673.975,177.489 668.5,176.5 Z"/></g>
<g><path style="opacity:1" fill="#5e5d5d" d="M 374.5,188.5 C 384.653,187.506 394.986,187.172 405.5,187.5C 405.795,189.735 405.461,191.735 404.5,193.5C 404.5,191.833 404.5,190.167 404.5,188.5C 394.5,188.5 384.5,188.5 374.5,188.5 Z"/></g>
<g><path style="opacity:1" fill="#060606" d="M 374.5,188.5 C 384.5,188.5 394.5,188.5 404.5,188.5C 404.5,190.167 404.5,191.833 404.5,193.5C 394.5,193.5 384.5,193.5 374.5,193.5C 374.5,191.833 374.5,190.167 374.5,188.5 Z"/></g>
<g><path style="opacity:1" fill="#c6c6c6" d="M 604.5,187.5 C 603.372,190.438 602.205,193.438 601,196.5C 597.847,197.786 595.181,199.786 593,202.5C 585.076,213.76 575.742,223.76 565,232.5C 564.667,233.5 564.333,234.5 564,235.5C 560.658,239.174 556.992,242.508 553,245.5C 547.704,254.463 540.704,261.796 532,267.5C 528.917,270.908 526.251,274.575 524,278.5C 519.644,280.497 516.644,283.83 515,288.5C 508.019,295.315 501.185,302.315 494.5,309.5C 493.152,308.473 492.652,307.14 493,305.5C 530.399,266.271 567.566,226.938 604.5,187.5 Z"/></g>
<g><path style="opacity:1" fill="#c1c2c1" d="M 383.5,299.5 C 382.504,299.414 381.671,299.748 381,300.5C 356.645,266.434 332.312,232.434 308,198.5C 301.369,189.513 294.535,180.846 287.5,172.5C 285.58,170.951 284.58,169.284 284.5,167.5C 284.811,166.522 285.478,165.855 286.5,165.5C 318.858,210.185 351.191,254.852 383.5,299.5 Z"/></g>
<g><path style="opacity:1" fill="#d8d8d8" d="M 287.5,172.5 C 294.535,180.846 301.369,189.513 308,198.5C 332.312,232.434 356.645,266.434 381,300.5C 381.671,299.748 382.504,299.414 383.5,299.5C 387.327,302.742 387.327,306.075 383.5,309.5C 376.888,301.659 370.721,293.325 365,284.5C 361.361,277.922 357.861,271.255 354.5,264.5C 351.901,264.451 349.734,263.451 348,261.5C 339.755,250.677 331.755,239.677 324,228.5C 323.449,224.291 321.449,220.958 318,218.5C 315.235,214.739 312.902,210.739 311,206.5C 305.679,199.515 300.012,192.848 294,186.5C 291.617,181.945 289.45,177.279 287.5,172.5 Z"/></g>
<g><path style="opacity:1" fill="#e3e3e3" d="M 611.5,186.5 C 610.778,186.918 610.278,187.584 610,188.5C 609.667,188.167 609.333,187.833 609,187.5C 608.74,189.618 607.74,191.284 606,192.5C 605.667,194.5 605.333,196.5 605,198.5C 590.252,213.248 575.586,227.914 561,242.5C 560.333,243.833 559.667,245.167 559,246.5C 555.478,249.266 552.145,252.266 549,255.5C 547.057,260.021 544.391,264.021 541,267.5C 534.692,273.138 528.359,278.805 522,284.5C 518.825,288.19 516.158,292.19 514,296.5C 508.25,302.816 502.416,308.816 496.5,314.5C 495.463,313.07 494.796,311.403 494.5,309.5C 501.185,302.315 508.019,295.315 515,288.5C 516.644,283.83 519.644,280.497 524,278.5C 526.251,274.575 528.917,270.908 532,267.5C 540.704,261.796 547.704,254.463 553,245.5C 556.992,242.508 560.658,239.174 564,235.5C 564.333,234.5 564.667,233.5 565,232.5C 575.742,223.76 585.076,213.76 593,202.5C 595.181,199.786 597.847,197.786 601,196.5C 602.205,193.438 603.372,190.438 604.5,187.5C 606.54,182.936 608.873,182.602 611.5,186.5 Z"/></g>
<g><path style="opacity:1" fill="#f1f1f1" d="M 284.5,167.5 C 284.58,169.284 285.58,170.951 287.5,172.5C 289.45,177.279 291.617,181.945 294,186.5C 300.012,192.848 305.679,199.515 311,206.5C 312.902,210.739 315.235,214.739 318,218.5C 321.449,220.958 323.449,224.291 324,228.5C 331.755,239.677 339.755,250.677 348,261.5C 349.734,263.451 351.901,264.451 354.5,264.5C 357.861,271.255 361.361,277.922 365,284.5C 370.721,293.325 376.888,301.659 383.5,309.5C 383.204,311.403 382.537,313.07 381.5,314.5C 351.606,272.751 321.439,231.085 291,189.5C 287.302,183.966 283.802,178.299 280.5,172.5C 280.977,171.522 281.643,170.689 282.5,170C 282.272,169.601 281.938,169.435 281.5,169.5C 282.29,168.599 283.29,167.932 284.5,167.5 Z"/></g>
<g><path style="opacity:1" fill="#0d0c0c" d="M 657.5,271.5 C 657.832,259.814 657.499,248.148 656.5,236.5C 655.893,236.624 655.56,236.957 655.5,237.5C 652.777,239.281 649.943,240.948 647,242.5C 645.55,238.276 647.05,235.776 651.5,235C 654.554,231.081 658.22,228.248 662.5,226.5C 662.5,241.5 662.5,256.5 662.5,271.5C 660.833,271.5 659.167,271.5 657.5,271.5 Z"/></g>
<g><path style="opacity:1" fill="#161616" d="M 684.5,226.5 C 686.288,226.215 687.955,226.548 689.5,227.5C 685.195,242.436 681.195,257.436 677.5,272.5C 676.167,272.5 674.833,272.5 673.5,272.5C 676.856,257.078 680.522,241.744 684.5,226.5 Z"/></g>
<g><path style="opacity:1" fill="#111111" d="M 577.5,237.5 C 584.005,237.168 588.838,239.835 592,245.5C 592.497,243.19 592.663,240.857 592.5,238.5C 594.5,238.5 596.5,238.5 598.5,238.5C 597.186,243.759 596.186,249.093 595.5,254.5C 595.892,260.066 597.225,265.399 599.5,270.5C 594.996,272.652 592.329,271.319 591.5,266.5C 584.266,273.068 577.1,273.068 570,266.5C 567.105,259.302 566.772,251.969 569,244.5C 571.439,241.549 574.272,239.216 577.5,237.5 Z"/></g>
<g><path style="opacity:1" fill="#0c0c0c" d="M 719.5,238.5 C 719.5,253.167 719.5,267.833 719.5,282.5C 718.167,282.5 716.833,282.5 715.5,282.5C 715.827,277.456 715.494,272.456 714.5,267.5C 713.893,267.624 713.56,267.957 713.5,268.5C 704.001,274.28 697.167,271.947 693,261.5C 691.267,253.834 692.767,247 697.5,241C 703.161,237.566 708.661,237.732 714,241.5C 714.483,240.552 714.649,239.552 714.5,238.5C 716.167,238.5 717.833,238.5 719.5,238.5 Z"/></g>
<g><path style="opacity:1" fill="#4d4d4d" d="M 605.5,241.5 C 615.319,240.506 625.319,240.173 635.5,240.5C 635.5,242.5 635.5,244.5 635.5,246.5C 625.319,246.827 615.319,246.494 605.5,245.5C 615.167,245.5 624.833,245.5 634.5,245.5C 634.5,244.167 634.5,242.833 634.5,241.5C 624.833,241.5 615.167,241.5 605.5,241.5 Z"/></g>
<g><path style="opacity:1" fill="#000000" d="M 605.5,241.5 C 615.167,241.5 624.833,241.5 634.5,241.5C 634.5,242.833 634.5,244.167 634.5,245.5C 624.833,245.5 615.167,245.5 605.5,245.5C 605.5,244.167 605.5,242.833 605.5,241.5 Z"/></g>
<g><path style="opacity:1" fill="#8a8989" d="M 655.5,237.5 C 655.56,236.957 655.893,236.624 656.5,236.5C 657.499,248.148 657.832,259.814 657.5,271.5C 656.833,260.167 656.167,248.833 655.5,237.5 Z"/></g>
<g><path style="opacity:1" fill="#f7f6f6" d="M 578.5,242.5 C 584.862,241.594 588.695,244.26 590,250.5C 590.937,255.403 590.27,260.07 588,264.5C 582.035,269.175 577.368,268.175 574,261.5C 573.333,256.833 573.333,252.167 574,247.5C 575.025,245.313 576.525,243.646 578.5,242.5 Z"/></g>
<g><path style="opacity:1" fill="#f5f5f5" d="M 703.5,242.5 C 709.862,241.594 713.695,244.26 715,250.5C 715.937,255.403 715.27,260.07 713,264.5C 707.035,269.175 702.368,268.175 699,261.5C 698.333,256.833 698.333,252.167 699,247.5C 700.025,245.313 701.525,243.646 703.5,242.5 Z"/></g>
<g><path style="opacity:1" fill="#3f3e3e" d="M 605.5,255.5 C 615.319,254.506 625.319,254.173 635.5,254.5C 635.5,256.5 635.5,258.5 635.5,260.5C 625.319,260.827 615.319,260.494 605.5,259.5C 615.167,259.5 624.833,259.5 634.5,259.5C 634.5,258.167 634.5,256.833 634.5,255.5C 624.833,255.5 615.167,255.5 605.5,255.5 Z"/></g>
<g><path style="opacity:1" fill="#000000" d="M 605.5,255.5 C 615.167,255.5 624.833,255.5 634.5,255.5C 634.5,256.833 634.5,258.167 634.5,259.5C 624.833,259.5 615.167,259.5 605.5,259.5C 605.5,258.167 605.5,256.833 605.5,255.5 Z"/></g>
<g><path style="opacity:1" fill="#7a7a7a" d="M 719.5,238.5 C 720.496,253.324 720.829,268.324 720.5,283.5C 718.5,283.5 716.5,283.5 714.5,283.5C 714.821,278.305 714.487,273.305 713.5,268.5C 713.56,267.957 713.893,267.624 714.5,267.5C 715.494,272.456 715.827,277.456 715.5,282.5C 716.833,282.5 718.167,282.5 719.5,282.5C 719.5,267.833 719.5,253.167 719.5,238.5 Z"/></g>
<g><path style="opacity:1" fill="#c0bfbf" d="M 427.5,282.5 C 458.035,279.506 478.868,292.173 490,320.5C 495.587,352.168 483.421,373.668 453.5,385C 422.946,390.809 401.446,379.643 389,351.5C 381.625,317.077 394.458,294.077 427.5,282.5 Z"/></g>
<g><path style="opacity:1" fill="#6e6d6d" d="M 429.5,317.5 C 427.265,317.205 425.265,317.539 423.5,318.5C 422.957,318.44 422.624,318.107 422.5,317.5C 424.973,316.203 427.307,316.203 429.5,317.5 Z"/></g>
<g><path style="opacity:1" fill="#6a6969" d="M 449.5,317.5 C 451.693,316.203 454.027,316.203 456.5,317.5C 456.376,318.107 456.043,318.44 455.5,318.5C 453.735,317.539 451.735,317.205 449.5,317.5 Z"/></g>
<g><path style="opacity:1" fill="#0a0a0a" d="M 429.5,317.5 C 432.873,326.773 436.373,336.107 440,345.5C 443.17,336.148 446.336,326.815 449.5,317.5C 451.735,317.205 453.735,317.539 455.5,318.5C 451.214,330.072 447.214,341.738 443.5,353.5C 441.076,353.808 438.743,353.474 436.5,352.5C 431.767,341.299 427.434,329.966 423.5,318.5C 425.265,317.539 427.265,317.205 429.5,317.5 Z"/></g>
<g><path style="opacity:1" fill="#eeeeed" d="M 225.5,174.5 C 226.586,174.62 227.253,175.287 227.5,176.5C 226.23,181.144 225.063,185.81 224,190.5C 197.591,276.228 172.091,362.228 147.5,448.5C 142.833,448.5 138.167,448.5 133.5,448.5C 137.647,447.675 141.981,447.175 146.5,447C 144.582,445.23 144.082,443.063 145,440.5C 170.572,351.568 197.405,262.902 225.5,174.5 Z"/></g>
<g><path style="opacity:1" fill="#d6d7d6" d="M 204.5,296.5 C 204.62,298.199 204.954,299.865 205.5,301.5C 201.125,313.127 198.292,325.127 197,337.5C 191.571,351.419 187.238,365.752 184,380.5C 178.977,389.543 175.31,399.21 173,409.5C 172.667,408.833 172.333,408.167 172,407.5C 171.768,408.737 171.268,409.737 170.5,410.5C 181.231,372.225 192.565,334.225 204.5,296.5 Z"/></g>
<g><path style="opacity:1" fill="#161616" d="M 714.5,362.5 C 715.833,362.5 717.167,362.5 718.5,362.5C 714.706,377.469 711.04,392.469 707.5,407.5C 706.167,407.5 704.833,407.5 703.5,407.5C 706.391,392.271 710.058,377.271 714.5,362.5 Z"/></g>
<g><path style="opacity:1" fill="#060606" d="M 690.5,363.5 C 690.5,377.833 690.5,392.167 690.5,406.5C 689.167,406.5 687.833,406.5 686.5,406.5C 686.828,395.321 686.495,384.321 685.5,373.5C 682.661,375.42 679.661,377.087 676.5,378.5C 675.566,377.432 675.232,376.099 675.5,374.5C 680.071,371.705 684.071,368.205 687.5,364C 688.448,363.517 689.448,363.351 690.5,363.5 Z"/></g>
<g><path style="opacity:1" fill="#111111" d="M 608.5,373.5 C 614.408,373.017 618.741,375.35 621.5,380.5C 621.395,375.603 623.728,373.603 628.5,374.5C 627.246,379.772 626.246,385.105 625.5,390.5C 626.246,395.895 627.246,401.228 628.5,406.5C 624.211,407.517 621.878,405.85 621.5,401.5C 615.093,409.054 608.259,409.387 601,402.5C 600.333,401.167 599.667,399.833 599,398.5C 598.333,393.167 598.333,387.833 599,382.5C 600.871,378.006 604.038,375.006 608.5,373.5 Z"/></g>
<g><path style="opacity:1" fill="#0e0e0e" d="M 741.5,377.5 C 741.56,378.043 741.893,378.376 742.5,378.5C 743.386,377.675 743.719,376.675 743.5,375.5C 744.833,375.5 746.167,375.5 747.5,375.5C 747.5,390.167 747.5,404.833 747.5,419.5C 746.167,419.5 744.833,419.5 743.5,419.5C 743.828,414.125 743.495,408.792 742.5,403.5C 741.893,403.624 741.56,403.957 741.5,404.5C 732.689,409.195 726.189,406.862 722,397.5C 721.333,392.833 721.333,388.167 722,383.5C 726.341,374.074 732.841,372.074 741.5,377.5 Z"/></g>
<g><path style="opacity:1" fill="#777675" d="M 675.5,374.5 C 675.232,376.099 675.566,377.432 676.5,378.5C 676.44,379.043 676.107,379.376 675.5,379.5C 674.212,377.701 674.212,376.035 675.5,374.5 Z"/></g>
<g><path style="opacity:1" fill="#040404" d="M 635.5,376.5 C 645.167,376.5 654.833,376.5 664.5,376.5C 664.5,378.167 664.5,379.833 664.5,381.5C 654.833,381.5 645.167,381.5 635.5,381.5C 635.5,379.833 635.5,378.167 635.5,376.5 Z"/></g>
<g><path style="opacity:1" fill="#f5f5f5" d="M 608.5,378.5 C 618.832,378.866 622.665,384.199 620,394.5C 619.348,401.813 615.514,404.313 608.5,402C 601.873,394.128 601.873,386.294 608.5,378.5 Z"/></g>
<g><path style="opacity:1" fill="#f6f6f6" d="M 732.5,378.5 C 737.957,377.974 741.457,380.307 743,385.5C 744.451,391.639 743.284,397.139 739.5,402C 733.579,404.774 729.745,402.941 728,396.5C 727.333,392.167 727.333,387.833 728,383.5C 729.025,381.313 730.525,379.646 732.5,378.5 Z"/></g>
<g><path style="opacity:1" fill="#747474" d="M 690.5,363.5 C 691.496,377.99 691.829,392.657 691.5,407.5C 689.5,407.5 687.5,407.5 685.5,407.5C 685.5,396.167 685.5,384.833 685.5,373.5C 686.495,384.321 686.828,395.321 686.5,406.5C 687.833,406.5 689.167,406.5 690.5,406.5C 690.5,392.167 690.5,377.833 690.5,363.5 Z"/></g>
<g><path style="opacity:1" fill="#0f0f0f" d="M 472.5,389.5 C 473.552,389.351 474.552,389.517 475.5,390C 481.607,396.101 486.94,402.767 491.5,410C 490.792,412.723 489.125,413.723 486.5,413C 480.957,407.126 475.79,400.959 471,394.5C 470.387,392.505 470.887,390.838 472.5,389.5 Z"/></g>
<g><path style="opacity:1" fill="#000000" d="M 635.5,390.5 C 644.833,390.5 654.167,390.5 663.5,390.5C 663.5,391.833 663.5,393.167 663.5,394.5C 654.167,394.5 644.833,394.5 635.5,394.5C 635.5,393.167 635.5,391.833 635.5,390.5 Z"/></g>
<g><path style="opacity:1" fill="#4a4a4a" d="M 635.5,390.5 C 644.986,389.506 654.652,389.173 664.5,389.5C 664.5,391.5 664.5,393.5 664.5,395.5C 654.652,395.827 644.986,395.494 635.5,394.5C 644.833,394.5 654.167,394.5 663.5,394.5C 663.5,393.167 663.5,391.833 663.5,390.5C 654.167,390.5 644.833,390.5 635.5,390.5 Z"/></g>
<g><path style="opacity:1" fill="#edeeed" d="M 242.5,179.5 C 243.778,180.749 244.778,182.249 245.5,184C 244.5,187 243.5,190 242.5,193C 242.833,193.333 243.167,193.667 243.5,194C 219.862,273.244 196.029,352.411 172,431.5C 169.787,438.642 167.287,445.642 164.5,452.5C 161.412,452.633 159.412,451.3 158.5,448.5C 161.934,435.536 165.934,422.87 170.5,410.5C 171.268,409.737 171.768,408.737 172,407.5C 172.333,408.167 172.667,408.833 173,409.5C 175.31,399.21 178.977,389.543 184,380.5C 187.238,365.752 191.571,351.419 197,337.5C 198.292,325.127 201.125,313.127 205.5,301.5C 204.954,299.865 204.62,298.199 204.5,296.5C 207.721,283.931 211.388,271.598 215.5,259.5C 216.397,260.598 217.23,260.598 218,259.5C 225.085,244.781 229.918,229.281 232.5,213C 236.527,201.906 239.861,190.739 242.5,179.5 Z"/></g>
<g><path style="opacity:1" fill="#8c8c8c" d="M 747.5,419.5 C 747.5,404.833 747.5,390.167 747.5,375.5C 746.167,375.5 744.833,375.5 743.5,375.5C 743.719,376.675 743.386,377.675 742.5,378.5C 741.893,378.376 741.56,378.043 741.5,377.5C 742.404,376.791 742.737,375.791 742.5,374.5C 744.5,374.5 746.5,374.5 748.5,374.5C 748.829,389.676 748.496,404.676 747.5,419.5 Z"/></g>
<g><path style="opacity:1" fill="#919291" d="M 741.5,404.5 C 741.56,403.957 741.893,403.624 742.5,403.5C 743.495,408.792 743.828,414.125 743.5,419.5C 742.833,414.5 742.167,409.5 741.5,404.5 Z"/></g>
<g><path style="opacity:1" fill="#151515" d="M 496.5,418.5 C 497.873,418.343 499.207,418.51 500.5,419C 506.333,424.833 512.167,430.667 518,436.5C 518.339,440.487 516.506,441.987 512.5,441C 507,435.5 501.5,430 496,424.5C 495.322,422.402 495.489,420.402 496.5,418.5 Z"/></g>
<g><path style="opacity:1" fill="#e6e7e6" d="M 689.5,471.5 C 689.795,473.735 689.461,475.735 688.5,477.5C 687.345,475.175 685.345,474.008 682.5,474C 676.801,469.818 670.801,466.152 664.5,463C 638.961,454.392 614.628,443.392 591.5,430C 566.788,419.917 542.455,408.75 518.5,396.5C 512.544,391.68 505.877,388.513 498.5,387C 492.448,385.086 487.781,381.586 484.5,376.5C 492.069,382.249 501.069,386.082 511.5,388C 532.346,399.409 553.68,410.075 575.5,420C 584.887,421.696 593.221,425.529 600.5,431.5C 610.225,436.393 620.225,440.559 630.5,444C 642.063,452.786 654.729,458.786 668.5,462C 671.833,464 675.167,466 678.5,468C 682.491,468.498 686.158,469.665 689.5,471.5 Z"/></g>
<g><path style="opacity:1" fill="#151515" d="M 371.5,429.5 C 372.833,429.5 374.167,429.5 375.5,429.5C 375.5,443.5 375.5,457.5 375.5,471.5C 373.833,471.5 372.167,471.5 370.5,471.5C 370.667,460.495 370.5,449.495 370,438.5C 367.414,440.545 364.58,442.211 361.5,443.5C 361.167,442.833 360.833,442.167 360.5,441.5C 364.841,438.158 368.507,434.158 371.5,429.5 Z"/></g>
<g><path style="opacity:1" fill="#efaf69" d="M 738.5,434.5 C 769.986,433.318 789.486,447.985 797,478.5C 798.591,501.153 789.758,518.32 770.5,530C 743.286,541.479 721.119,535.312 704,511.5C 690.388,482.688 696.554,459.188 722.5,441C 727.744,438.315 733.077,436.148 738.5,434.5 Z"/></g>
<g><path style="opacity:1" fill="#7b7b7a" d="M 313.5,441.5 C 315.364,440.207 317.364,440.207 319.5,441.5C 319.376,442.107 319.043,442.44 318.5,442.5C 317.081,441.549 315.415,441.216 313.5,441.5 Z"/></g>
<g><path style="opacity:1" fill="#121212" d="M 313.5,441.5 C 315.415,441.216 317.081,441.549 318.5,442.5C 317.267,446.932 316.267,451.432 315.5,456C 316.613,461.164 317.613,466.331 318.5,471.5C 314.579,472.07 312.412,470.403 312,466.5C 306.07,474.013 299.736,474.346 293,467.5C 290.526,461.417 289.859,455.084 291,448.5C 294.091,441.872 299.257,439.372 306.5,441C 308.624,442.122 310.457,443.622 312,445.5C 312.41,444.099 312.91,442.766 313.5,441.5 Z"/></g>
<g><path style="opacity:1" fill="#181818" d="M 394.5,441.5 C 395.5,441.5 396.5,441.5 397.5,441.5C 394.767,453.531 391.933,465.531 389,477.5C 387.989,478.337 386.822,478.67 385.5,478.5C 387.723,465.944 390.723,453.611 394.5,441.5 Z"/></g>
<g><path style="opacity:1" fill="#121212" d="M 402.5,442.5 C 404.167,442.5 405.833,442.5 407.5,442.5C 407.343,443.873 407.51,445.207 408,446.5C 416.612,440 423.279,441.666 428,451.5C 429.646,458.523 428.146,464.689 423.5,470C 417.783,473.804 412.616,473.304 408,468.5C 407.501,473.489 407.334,478.489 407.5,483.5C 405.833,483.5 404.167,483.5 402.5,483.5C 402.5,469.833 402.5,456.167 402.5,442.5 Z"/></g>
<g><path style="opacity:1" fill="#cacaca" d="M 689.5,471.5 C 686.158,469.665 682.491,468.498 678.5,468C 675.167,466 671.833,464 668.5,462C 654.729,458.786 642.063,452.786 630.5,444C 620.225,440.559 610.225,436.393 600.5,431.5C 593.221,425.529 584.887,421.696 575.5,420C 553.68,410.075 532.346,399.409 511.5,388C 501.069,386.082 492.069,382.249 484.5,376.5C 483.833,376.5 483.167,376.5 482.5,376.5C 483.812,374.521 485.479,372.855 487.5,371.5C 554.833,403.5 622.167,435.5 689.5,467.5C 690.782,468.958 690.782,470.292 689.5,471.5 Z"/></g>
<g><path style="opacity:1" fill="#131313" d="M 325.5,442.5 C 333.833,442.5 342.167,442.5 350.5,442.5C 350.5,444.167 350.5,445.833 350.5,447.5C 342.167,447.5 333.833,447.5 325.5,447.5C 325.5,445.833 325.5,444.167 325.5,442.5 Z"/></g>
<g><path style="opacity:1" fill="#f5f5f5" d="M 300.5,444.5 C 306.404,443.894 309.904,446.561 311,452.5C 311.896,457.816 310.729,462.65 307.5,467C 301.708,468.989 297.875,467.155 296,461.5C 295.333,457.833 295.333,454.167 296,450.5C 296.804,447.854 298.304,445.854 300.5,444.5 Z"/></g>
<g><path style="opacity:1" fill="#f9f9f9" d="M 411.5,446.5 C 415.909,445.618 419.409,446.952 422,450.5C 422.667,454.833 422.667,459.167 422,463.5C 419.928,468.143 416.428,469.643 411.5,468C 409.951,466.786 408.785,465.286 408,463.5C 406.487,457.13 407.653,451.464 411.5,446.5 Z"/></g>
<g><path style="opacity:1" fill="#0e0e0e" d="M 524.5,446.5 C 527.226,446.264 529.559,447.097 531.5,449C 536.667,453.5 541.833,458 547,462.5C 547.185,464.826 546.018,466.16 543.5,466.5C 535.976,462.154 529.143,456.821 523,450.5C 522.7,448.934 523.2,447.601 524.5,446.5 Z"/></g>
<g><path style="opacity:1" fill="#6d6d6d" d="M 325.5,455.5 C 333.984,454.507 342.651,454.174 351.5,454.5C 351.784,456.415 351.451,458.081 350.5,459.5C 350.5,458.167 350.5,456.833 350.5,455.5C 342.167,455.5 333.833,455.5 325.5,455.5 Z"/></g>
<g><path style="opacity:1" fill="#000000" d="M 325.5,455.5 C 333.833,455.5 342.167,455.5 350.5,455.5C 350.5,456.833 350.5,458.167 350.5,459.5C 342.167,459.5 333.833,459.5 325.5,459.5C 325.5,458.167 325.5,456.833 325.5,455.5 Z"/></g>
<g><path style="opacity:1" fill="#fcfcfc" d="M 133.5,456.5 C 163.844,455.36 183.011,469.36 191,498.5C 192.24,528.512 178.407,547.679 149.5,556C 119.928,558.121 100.761,544.955 92,516.5C 89.2849,484.9 103.118,464.9 133.5,456.5 Z"/></g>
<g><path style="opacity:1" fill="#c4c4c3" d="M 832.5,439.5 C 834.935,441.541 835.102,443.874 833,446.5C 829.318,448.49 825.818,450.657 822.5,453C 818.11,457.712 813.443,462.212 808.5,466.5C 806.664,467.028 804.997,467.694 803.5,468.5C 802.609,467.739 801.942,466.739 801.5,465.5C 811.639,456.598 821.973,447.931 832.5,439.5 Z"/></g>
<g><path style="opacity:1" fill="#120e09" d="M 735.5,515.5 C 735.5,513.833 735.5,512.167 735.5,510.5C 737.415,510.784 739.081,510.451 740.5,509.5C 744.078,507.098 745.245,503.765 744,499.5C 740.118,488.681 735.951,478.015 731.5,467.5C 734.034,466.223 736.534,466.223 739,467.5C 741.721,475.941 744.721,484.274 748,492.5C 751.38,484.363 754.38,476.03 757,467.5C 759.041,466.577 761.208,466.244 763.5,466.5C 758.306,481.58 752.806,496.58 747,511.5C 743.795,515.384 739.961,516.717 735.5,515.5 Z"/></g>
<g><path style="opacity:1" fill="#0c0c0c" d="M 554.5,470.5 C 556.655,470.372 558.655,470.872 560.5,472C 566.167,475.667 571.833,479.333 577.5,483C 579.323,487.846 577.656,489.512 572.5,488C 566.833,484.333 561.167,480.667 555.5,477C 553.316,475.102 552.983,472.936 554.5,470.5 Z"/></g>
<g><path style="opacity:1" fill="#0a0a0a" d="M 140.5,480.5 C 142.423,484.029 143.089,488.029 142.5,492.5C 144.833,492.5 147.167,492.5 149.5,492.5C 149.5,494.167 149.5,495.833 149.5,497.5C 147.167,497.5 144.833,497.5 142.5,497.5C 142.334,505.507 142.5,513.507 143,521.5C 144.789,523.229 146.956,523.896 149.5,523.5C 149.5,525.5 149.5,527.5 149.5,529.5C 146.813,529.664 144.146,529.497 141.5,529C 139.333,528.167 137.833,526.667 137,524.5C 136.5,515.506 136.334,506.506 136.5,497.5C 135.167,497.5 133.833,497.5 132.5,497.5C 132.5,495.833 132.5,494.167 132.5,492.5C 133.833,492.5 135.167,492.5 136.5,492.5C 136.335,489.482 136.502,486.482 137,483.5C 138.145,482.364 139.312,481.364 140.5,480.5 Z"/></g>
<g><path style="opacity:1" fill="#7f7f7f" d="M 89.5,479.5 C 70.674,480.497 51.674,480.83 32.5,480.5C 32.5,484.167 32.5,487.833 32.5,491.5C 49.8333,491.5 67.1667,491.5 84.5,491.5C 84.7373,492.791 84.404,493.791 83.5,494.5C 67.2002,492.515 50.5335,491.848 33.5,492.5C 31.6565,490.721 30.9898,488.388 31.5,485.5C 31.5,483.5 31.5,481.5 31.5,479.5C 50.8333,479.5 70.1667,479.5 89.5,479.5 Z"/></g>
<g><path style="opacity:1" fill="#0d0d0d" d="M 588.5,490.5 C 596.373,493.434 604.039,496.934 611.5,501C 613.323,505.846 611.656,507.512 606.5,506C 600.136,502.818 593.802,499.651 587.5,496.5C 586.23,494.243 586.564,492.243 588.5,490.5 Z"/></g>
<g><path style="opacity:1" fill="#bebfbe" d="M 33.5,492.5 C 50.5335,491.848 67.2002,492.515 83.5,494.5C 83.5,500.833 83.5,507.167 83.5,513.5C 82.5269,511.052 82.1936,508.385 82.5,505.5C 82.6641,502.813 82.4974,500.146 82,497.5C 66.5744,498.657 51.0744,498.824 35.5,498C 33.4186,496.4 32.7519,494.566 33.5,492.5 Z"/></g>
<g><path style="opacity:1" fill="#eeefee" d="M 31.5,485.5 C 30.9898,488.388 31.6565,490.721 33.5,492.5C 32.7519,494.566 33.4186,496.4 35.5,498C 51.0744,498.824 66.5744,498.657 82,497.5C 82.4974,500.146 82.6641,502.813 82.5,505.5C 66.1053,505.91 49.4387,505.41 32.5,504C 28.4272,501.525 26.4272,497.858 26.5,493C 26.2942,489.28 27.4609,486.113 30,483.5C 30.2784,484.416 30.7784,485.082 31.5,485.5 Z"/></g>
<g><path style="opacity:1" fill="#121212" d="M 622.5,506.5 C 631.588,508.251 640.421,510.917 649,514.5C 649.588,517.588 648.255,519.255 645,519.5C 637.87,517.259 630.704,515.092 623.5,513C 621.316,511.102 620.983,508.936 622.5,506.5 Z"/></g>
<g><path style="opacity:1" fill="#080808" d="M 664.5,508.5 C 672.509,511.226 680.509,514.059 688.5,517C 682.002,521.417 675.335,525.584 668.5,529.5C 667.914,529.291 667.414,528.957 667,528.5C 666.505,526.527 666.338,524.527 666.5,522.5C 663.606,522.958 661.106,522.291 659,520.5C 658.044,516.075 659.877,514.408 664.5,515.5C 664.5,513.167 664.5,510.833 664.5,508.5 Z"/></g>
<g><path style="opacity:1" fill="#8f6d47" d="M 740.5,509.5 C 739.081,510.451 737.415,510.784 735.5,510.5C 735.5,512.167 735.5,513.833 735.5,515.5C 734.539,513.735 734.205,511.735 734.5,509.5C 736.5,509.5 738.5,509.5 740.5,509.5 Z"/></g>
<g><path style="opacity:1" fill="#c1c2c1" d="M 836.5,529.5 C 836.844,530.683 836.178,531.516 834.5,532C 832.167,532.667 829.833,532.667 827.5,532C 821.515,529.337 815.515,526.67 809.5,524C 804.048,523.637 798.714,522.804 793.5,521.5C 794.33,519.176 795.663,517.176 797.5,515.5C 810.598,520.197 823.598,524.864 836.5,529.5 Z"/></g>
<g><path style="opacity:1" fill="#dcdddc" d="M 793.5,521.5 C 798.714,522.804 804.048,523.637 809.5,524C 815.515,526.67 821.515,529.337 827.5,532C 829.833,532.667 832.167,532.667 834.5,532C 836.178,531.516 836.844,530.683 836.5,529.5C 837.5,529.5 838.5,529.5 839.5,529.5C 839.98,526.557 840.98,523.89 842.5,521.5C 844.792,535.035 839.126,540.201 825.5,537C 818.015,534.088 810.682,530.922 803.5,527.5C 799.155,526.389 794.821,525.389 790.5,524.5C 791.167,523.167 792.167,522.167 793.5,521.5 Z"/></g>
<g><path style="opacity:1" fill="#bdbdbd" d="M 99.5,547.5 C 98.2928,548.189 96.9594,548.355 95.5,548C 88.5,553.667 81.5,559.333 74.5,565C 72.4595,570.845 68.4595,573.345 62.5,572.5C 72.9087,563.115 83.5754,553.948 94.5,545C 96.9278,544.253 98.5944,545.086 99.5,547.5 Z"/></g>
<g><path style="opacity:1" fill="#d5d5d5" d="M 99.5,547.5 C 100.5,547.833 101.167,548.5 101.5,549.5C 100.778,549.918 100.278,550.584 100,551.5C 98.6124,550.446 97.1124,550.28 95.5,551C 89.3993,557.152 83.066,563.152 76.5,569C 72.3526,572.909 67.6859,576.076 62.5,578.5C 56.5957,576.323 54.2623,572.323 55.5,566.5C 57.2135,569.213 59.5468,571.213 62.5,572.5C 68.4595,573.345 72.4595,570.845 74.5,565C 81.5,559.333 88.5,553.667 95.5,548C 96.9594,548.355 98.2928,548.189 99.5,547.5 Z"/></g>
</svg>
